<svg width="847.3040000000001" height="1827.8747677693564" viewBox="0 0 847.3040000000001 1827.8747677693564" xmlns="http://www.w3.org/2000/svg">
<style>/* font and background color specifications */
svg {
    font-family: RobotoMono Nerd Font, FiraCode Nerd Font Mono, SFMono-Regular,Consolas,Liberation Mono,Menlo,monospace;
    font-size: 14px;
    font-kerning: normal;
    text-rendering: optimizeLegibility;
    fill: #24292e;
}

/* default key styling */
rect {
    fill: #f6f8fa;
    stroke: #c9cccf;
    stroke-width: 1;
}

/* color accent for combo boxes */
rect.combo {
    fill: #cdf;
}

/* color accent for held keys */
rect.held, rect.combo.held {
    fill: #fdd;
}

/* color accent for ghost (optional) keys */
rect.ghost, rect.combo.ghost {
    fill: #ddd;
}

text {
    text-anchor: middle;
    dominant-baseline: middle;
}

/* styling for layer labels */
text.label {
    font-weight: bold;
    text-anchor: start;
    stroke: white;
    stroke-width: 2;
    paint-order: stroke;
}

/* styling for combo tap, and key hold/shifted label text */
text.combo, text.hold, text.shifted {
    font-size: 11px;
}

text.hold {
    text-anchor: middle;
    dominant-baseline: auto;
}

text.shifted {
    text-anchor: middle;
    dominant-baseline: hanging;
}

/* styling for hold/shifted label text in combo box */
text.combo.hold, text.combo.shifted {
    font-size: 8px;
}

/* styling for combo dendrons */
path {
    stroke-width: 1;
    stroke: gray;
    fill: none;
}
</style>
<g class="layer-BASE">
<text x="30.0" y="28.0" class="label">BASE:</text>
<rect rx="6.0" ry="6.0" x="32.0" y="117.304" width="55.303999999999995" height="52.0" class=""/>
<text x="59.652" y="143.304" class="tap">W</text>
<rect rx="6.0" ry="6.0" x="91.30399999999999" y="77.768" width="55.303999999999995" height="52.0" class=""/>
<text x="118.95599999999999" y="103.768" class="tap">L</text>
<rect rx="6.0" ry="6.0" x="150.608" y="58.0" width="55.303999999999995" height="52.0" class=""/>
<text x="178.26" y="84.0" class="tap">Y</text>
<rect rx="6.0" ry="6.0" x="209.91200000000003" y="79.78399999999999" width="55.303999999999995" height="52.0" class=""/>
<text x="237.56400000000002" y="105.78399999999999" class="tap">P</text>
<rect rx="6.0" ry="6.0" x="269.21599999999995" y="87.624" width="55.303999999999995" height="52.0" class=""/>
<text x="296.86799999999994" y="113.624" class="tap">B</text>
<rect rx="6.0" ry="6.0" x="522.784" y="87.624" width="55.303999999999995" height="52.0" class=""/>
<text x="550.436" y="113.624" class="tap">Z</text>
<rect rx="6.0" ry="6.0" x="582.088" y="79.78399999999999" width="55.303999999999995" height="52.0" class=""/>
<text x="609.74" y="105.78399999999999" class="tap">F</text>
<rect rx="6.0" ry="6.0" x="641.3919999999999" y="58.0" width="55.303999999999995" height="52.0" class=""/>
<text x="669.044" y="84.0" class="tap">O</text>
<rect rx="6.0" ry="6.0" x="700.696" y="77.768" width="55.303999999999995" height="52.0" class=""/>
<text x="728.3480000000001" y="103.768" class="tap">U</text>
<rect rx="6.0" ry="6.0" x="760.0" y="117.304" width="55.303999999999995" height="52.0" class=""/>
<text x="787.652" y="143.304" class="tap">&#x27;</text>
<text x="787.652" y="119.304" class="shifted">&quot;</text>
<rect rx="6.0" ry="6.0" x="32.0" y="173.304" width="55.303999999999995" height="52.0" class=""/>
<text x="59.652" y="199.304" class="tap">C</text>
<rect rx="6.0" ry="6.0" x="91.30399999999999" y="133.768" width="55.303999999999995" height="52.0" class=""/>
<text x="118.95599999999999" y="159.768" class="tap">R</text>
<text x="118.95599999999999" y="183.768" class="hold">LGUI</text>
<rect rx="6.0" ry="6.0" x="150.608" y="114.0" width="55.303999999999995" height="52.0" class=""/>
<text x="178.26" y="140.0" class="tap">S</text>
<text x="178.26" y="164.0" class="hold">LSHIFT</text>
<rect rx="6.0" ry="6.0" x="209.91200000000003" y="135.784" width="55.303999999999995" height="52.0" class=""/>
<text x="237.56400000000002" y="161.784" class="tap">T</text>
<text x="237.56400000000002" y="185.784" class="hold">LCTRL</text>
<rect rx="6.0" ry="6.0" x="269.21599999999995" y="143.624" width="55.303999999999995" height="52.0" class=""/>
<text x="296.86799999999994" y="169.624" class="tap">G</text>
<rect rx="6.0" ry="6.0" x="522.784" y="143.624" width="55.303999999999995" height="52.0" class=""/>
<text x="550.436" y="169.624" class="tap">M</text>
<rect rx="6.0" ry="6.0" x="582.088" y="135.784" width="55.303999999999995" height="52.0" class=""/>
<text x="609.74" y="161.784" class="tap">N</text>
<text x="609.74" y="185.784" class="hold">RCTRL</text>
<rect rx="6.0" ry="6.0" x="641.3919999999999" y="114.0" width="55.303999999999995" height="52.0" class=""/>
<text x="669.044" y="140.0" class="tap">E</text>
<text x="669.044" y="164.0" class="hold">RSHIFT</text>
<rect rx="6.0" ry="6.0" x="700.696" y="133.768" width="55.303999999999995" height="52.0" class=""/>
<text x="728.3480000000001" y="159.768" class="tap">I</text>
<text x="728.3480000000001" y="183.768" class="hold">RGUI</text>
<rect rx="6.0" ry="6.0" x="760.0" y="173.304" width="55.303999999999995" height="52.0" class=""/>
<text x="787.652" y="199.304" class="tap">A</text>
<rect rx="6.0" ry="6.0" x="32.0" y="229.304" width="55.303999999999995" height="52.0" class=""/>
<text x="59.652" y="255.304" class="tap">Q</text>
<rect rx="6.0" ry="6.0" x="91.30399999999999" y="189.768" width="55.303999999999995" height="52.0" class=""/>
<text x="118.95599999999999" y="215.768" class="tap">J</text>
<rect rx="6.0" ry="6.0" x="150.608" y="170.0" width="55.303999999999995" height="52.0" class=""/>
<text x="178.26" y="196.0" class="tap">V</text>
<rect rx="6.0" ry="6.0" x="209.91200000000003" y="191.84" width="55.303999999999995" height="52.0" class=""/>
<text x="237.56400000000002" y="217.84" class="tap">D</text>
<text x="237.56400000000002" y="241.84" class="hold">LALT</text>
<rect rx="6.0" ry="6.0" x="269.21599999999995" y="199.624" width="55.303999999999995" height="52.0" class=""/>
<text x="296.86799999999994" y="225.624" class="tap">K</text>
<rect rx="6.0" ry="6.0" x="522.784" y="199.624" width="55.303999999999995" height="52.0" class=""/>
<text x="550.436" y="225.624" class="tap">X</text>
<rect rx="6.0" ry="6.0" x="582.088" y="191.84" width="55.303999999999995" height="52.0" class=""/>
<text x="609.74" y="217.84" class="tap">H</text>
<text x="609.74" y="241.84" class="hold">RALT</text>
<rect rx="6.0" ry="6.0" x="641.3919999999999" y="170.0" width="55.303999999999995" height="52.0" class=""/>
<text x="669.044" y="196.0" class="tap">,</text>
<text x="669.044" y="172.0" class="shifted">;</text>
<rect rx="6.0" ry="6.0" x="700.696" y="189.768" width="55.303999999999995" height="52.0" class=""/>
<text x="728.3480000000001" y="215.768" class="tap">.</text>
<text x="728.3480000000001" y="191.768" class="shifted">:</text>
<rect rx="6.0" ry="6.0" x="760.0" y="229.304" width="55.303999999999995" height="52.0" class=""/>
<text x="787.652" y="255.304" class="tap">?</text>
<text x="787.652" y="231.304" class="shifted">!</text>
<rect rx="6.0" ry="6.0" x="190.42400000000004" y="257.584" width="55.303999999999995" height="52.0" class=""/>
<text x="218.07600000000002" y="283.584" class="tap">CANCEL</text>
<g transform="rotate(15.0, 284.15695407686394, 292.0887530667371)">
<rect rx="6.0" ry="6.0" x="256.50495407686395" y="266.0887530667371" width="55.303999999999995" height="52.0" class=""/>
<text x="284.15695407686394" y="292.0887530667371" class="tap">󰌑</text>
<text x="284.15695407686394" y="316.0887530667371" class="hold">LCTRL</text>
</g>
<g transform="rotate(30.0, 350.59357474425406, 301.868)">
<rect rx="6.0" ry="6.0" x="324.59357474425406" y="259.404" width="52.0" height="84.928" class=""/>
<text x="350.59357474425406" y="301.868" class="tap">󱁐</text>
<text x="350.59357474425406" y="342.332" class="hold">NUM</text>
<text x="350.59357474425406" y="261.404" class="shifted">Sentence</text>
</g>
<g transform="rotate(-30.0, 493.40642525574594, 301.868)">
<rect rx="6.0" ry="6.0" x="467.40642525574594" y="259.404" width="52.0" height="84.928" class=""/>
<text x="493.40642525574594" y="301.868" class="tap">
<tspan x="493.40642525574594" dy="-1.2em">Sticky</tspan><tspan x="493.40642525574594" dy="1.2em">Shift</tspan></text>
<text x="493.40642525574594" y="342.332" class="hold">HYPER</text>
</g>
<g transform="rotate(-15.0, 563.0344648531952, 291.23361494171843)">
<rect rx="6.0" ry="6.0" x="535.3824648531952" y="265.23361494171843" width="55.303999999999995" height="52.0" class=""/>
<text x="563.0344648531952" y="291.23361494171843" class="tap">󰭜</text>
<text x="563.0344648531952" y="315.23361494171843" class="hold">NAV</text>
<text x="563.0344648531952" y="267.23361494171843" class="shifted">󰹿</text>
</g>
<rect rx="6.0" ry="6.0" x="601.5759999999999" y="257.584" width="55.303999999999995" height="52.0" class=""/>
<text x="629.228" y="283.584" class="tap">ADJ</text>
<text x="629.228" y="307.584" class="hold">sticky</text>
</g>
<g class="layer-COMBOS">
<text x="30.0" y="382.37495355387125" class="label">COMBOS:</text>
<rect rx="6.0" ry="6.0" x="32.0" y="471.6789535538712" width="55.303999999999995" height="52.0" class=""/>
<rect rx="6.0" ry="6.0" x="91.30399999999999" y="432.1429535538713" width="55.303999999999995" height="52.0" class=""/>
<rect rx="6.0" ry="6.0" x="150.608" y="412.37495355387125" width="55.303999999999995" height="52.0" class=""/>
<rect rx="6.0" ry="6.0" x="209.91200000000003" y="434.15895355387124" width="55.303999999999995" height="52.0" class=""/>
<rect rx="6.0" ry="6.0" x="269.21599999999995" y="441.9989535538713" width="55.303999999999995" height="52.0" class=""/>
<rect rx="6.0" ry="6.0" x="522.784" y="441.9989535538713" width="55.303999999999995" height="52.0" class=""/>
<rect rx="6.0" ry="6.0" x="582.088" y="434.15895355387124" width="55.303999999999995" height="52.0" class=""/>
<rect rx="6.0" ry="6.0" x="641.3919999999999" y="412.37495355387125" width="55.303999999999995" height="52.0" class=""/>
<rect rx="6.0" ry="6.0" x="700.696" y="432.1429535538713" width="55.303999999999995" height="52.0" class=""/>
<rect rx="6.0" ry="6.0" x="760.0" y="471.6789535538712" width="55.303999999999995" height="52.0" class=""/>
<rect rx="6.0" ry="6.0" x="32.0" y="527.6789535538712" width="55.303999999999995" height="52.0" class=""/>
<rect rx="6.0" ry="6.0" x="91.30399999999999" y="488.1429535538713" width="55.303999999999995" height="52.0" class=""/>
<rect rx="6.0" ry="6.0" x="150.608" y="468.37495355387125" width="55.303999999999995" height="52.0" class=""/>
<rect rx="6.0" ry="6.0" x="209.91200000000003" y="490.15895355387124" width="55.303999999999995" height="52.0" class=""/>
<rect rx="6.0" ry="6.0" x="269.21599999999995" y="497.9989535538713" width="55.303999999999995" height="52.0" class=""/>
<rect rx="6.0" ry="6.0" x="522.784" y="497.9989535538713" width="55.303999999999995" height="52.0" class=""/>
<rect rx="6.0" ry="6.0" x="582.088" y="490.15895355387124" width="55.303999999999995" height="52.0" class=""/>
<rect rx="6.0" ry="6.0" x="641.3919999999999" y="468.37495355387125" width="55.303999999999995" height="52.0" class=""/>
<rect rx="6.0" ry="6.0" x="700.696" y="488.1429535538713" width="55.303999999999995" height="52.0" class=""/>
<rect rx="6.0" ry="6.0" x="760.0" y="527.6789535538712" width="55.303999999999995" height="52.0" class=""/>
<rect rx="6.0" ry="6.0" x="32.0" y="583.6789535538712" width="55.303999999999995" height="52.0" class=""/>
<rect rx="6.0" ry="6.0" x="91.30399999999999" y="544.1429535538713" width="55.303999999999995" height="52.0" class=""/>
<rect rx="6.0" ry="6.0" x="150.608" y="524.3749535538713" width="55.303999999999995" height="52.0" class=""/>
<rect rx="6.0" ry="6.0" x="209.91200000000003" y="546.2149535538713" width="55.303999999999995" height="52.0" class=""/>
<rect rx="6.0" ry="6.0" x="269.21599999999995" y="553.9989535538713" width="55.303999999999995" height="52.0" class=""/>
<rect rx="6.0" ry="6.0" x="522.784" y="553.9989535538713" width="55.303999999999995" height="52.0" class=""/>
<rect rx="6.0" ry="6.0" x="582.088" y="546.2149535538713" width="55.303999999999995" height="52.0" class=""/>
<rect rx="6.0" ry="6.0" x="641.3919999999999" y="524.3749535538713" width="55.303999999999995" height="52.0" class=""/>
<rect rx="6.0" ry="6.0" x="700.696" y="544.1429535538713" width="55.303999999999995" height="52.0" class=""/>
<rect rx="6.0" ry="6.0" x="760.0" y="583.6789535538712" width="55.303999999999995" height="52.0" class=""/>
<rect rx="6.0" ry="6.0" x="190.42400000000004" y="611.9589535538712" width="55.303999999999995" height="52.0" class=""/>
<g transform="rotate(15.0, 284.15695407686394, 646.4637066206084)">
<rect rx="6.0" ry="6.0" x="256.50495407686395" y="620.4637066206084" width="55.303999999999995" height="52.0" class=""/>
</g>
<g transform="rotate(30.0, 350.59357474425406, 656.2429535538713)">
<rect rx="6.0" ry="6.0" x="324.59357474425406" y="613.7789535538714" width="52.0" height="84.928" class=""/>
</g>
<g transform="rotate(-30.0, 493.40642525574594, 656.2429535538713)">
<rect rx="6.0" ry="6.0" x="467.40642525574594" y="613.7789535538714" width="52.0" height="84.928" class=""/>
</g>
<g transform="rotate(-15.0, 563.0344648531952, 645.6085684955897)">
<rect rx="6.0" ry="6.0" x="535.3824648531952" y="619.6085684955897" width="55.303999999999995" height="52.0" class=""/>
</g>
<rect rx="6.0" ry="6.0" x="601.5759999999999" y="611.9589535538712" width="55.303999999999995" height="52.0" class=""/>
<rect rx="6.0" ry="6.0" x="134.608" y="435.25895355387127" width="28.0" height="26.0" class="combo"/>
<text x="148.608" y="448.25895355387127" class="combo">CW</text>
<rect rx="6.0" ry="6.0" x="193.912" y="436.26695355387125" width="28.0" height="26.0" class="combo"/>
<text x="207.912" y="449.26695355387125" class="combo">CT</text>
<rect rx="6.0" ry="6.0" x="75.304" y="520.9109535538712" width="28.0" height="26.0" class="combo"/>
<text x="89.304" y="533.9109535538712" class="combo">`</text>
<rect rx="6.0" ry="6.0" x="134.608" y="491.25895355387127" width="28.0" height="26.0" class="combo"/>
<text x="148.608" y="504.25895355387127" class="combo">ESC</text>
<rect rx="6.0" ry="6.0" x="193.912" y="492.26695355387125" width="28.0" height="26.0" class="combo"/>
<text x="207.912" y="505.26695355387125" class="combo">TAB</text>
<rect rx="6.0" ry="6.0" x="134.608" y="547.2589535538713" width="28.0" height="26.0" class="combo"/>
<text x="148.608" y="560.2589535538713" class="combo">󰆏</text>
<rect rx="6.0" ry="6.0" x="193.912" y="548.2949535538712" width="28.0" height="26.0" class="combo"/>
<text x="207.912" y="561.2949535538712" class="combo">󰆒</text>
<path d="M178.26,601.2149535538713 h-53.304 a6.0,6.0 0 0 1 -6.0,-6.0 v-6.405333333333335"/>
<path d="M178.26,601.2149535538713 h-6.0 a6.0,6.0 0 0 1 6.0,-6.0 v-33.64000000000003"/>
<path d="M178.26,601.2149535538713 h53.30400000000003 a6.0,6.0 0 0 0 6.0,-6.0 v-4.333333333333332"/>
<rect rx="6.0" ry="6.0" x="164.26" y="588.2149535538713" width="28.0" height="26.0" class="combo"/>
<text x="178.26" y="601.2149535538713" class="combo"></text>
<rect rx="6.0" ry="6.0" x="75.304" y="576.9109535538712" width="28.0" height="26.0" class="combo"/>
<text x="89.304" y="589.9109535538712" class="combo">󰕌</text>
<rect rx="6.0" ry="6.0" x="253.216" y="563.1069535538712" width="28.0" height="26.0" class="combo"/>
<text x="267.216" y="576.1069535538712" class="combo">󰑎</text>
<rect rx="6.0" ry="6.0" x="45.652" y="512.6789535538712" width="28.0" height="26.0" class="combo"/>
<text x="59.652" y="525.6789535538712" class="combo">°</text>
<rect rx="6.0" ry="6.0" x="104.95599999999999" y="473.1429535538713" width="28.0" height="26.0" class="combo"/>
<text x="118.95599999999999" y="486.1429535538713" class="combo">@</text>
<rect rx="6.0" ry="6.0" x="164.26" y="453.37495355387125" width="28.0" height="26.0" class="combo"/>
<text x="178.26" y="466.37495355387125" class="combo">#</text>
<rect rx="6.0" ry="6.0" x="223.56400000000002" y="475.15895355387124" width="28.0" height="26.0" class="combo"/>
<text x="237.56400000000002" y="488.15895355387124" class="combo">$</text>
<rect rx="6.0" ry="6.0" x="282.86799999999994" y="482.9989535538713" width="28.0" height="26.0" class="combo"/>
<text x="296.86799999999994" y="495.9989535538713" class="combo">%</text>
<rect rx="6.0" ry="6.0" x="104.95599999999999" y="529.1429535538713" width="28.0" height="26.0" class="combo"/>
<text x="118.95599999999999" y="542.1429535538713" class="combo">`</text>
<rect rx="6.0" ry="6.0" x="164.26" y="509.37495355387125" width="28.0" height="26.0" class="combo"/>
<text x="178.26" y="522.3749535538713" class="combo">\</text>
<rect rx="6.0" ry="6.0" x="223.56400000000002" y="531.1869535538713" width="28.0" height="26.0" class="combo"/>
<text x="237.56400000000002" y="544.1869535538713" class="combo">=</text>
<rect rx="6.0" ry="6.0" x="282.86799999999994" y="538.9989535538713" width="28.0" height="26.0" class="combo"/>
<text x="296.86799999999994" y="551.9989535538713" class="combo">~</text>
<rect rx="6.0" ry="6.0" x="625.392" y="436.26695355387125" width="28.0" height="26.0" class="combo"/>
<text x="639.392" y="449.26695355387125" class="combo">(</text>
<rect rx="6.0" ry="6.0" x="684.696" y="435.25895355387127" width="28.0" height="26.0" class="combo"/>
<text x="698.696" y="448.25895355387127" class="combo">)</text>
<path d="M669.044,409.37495355387125 h-53.303999999999974 a6.0,6.0 0 0 0 -6.0,6.0 v26.117333333333324"/>
<path d="M669.044,409.37495355387125 h-6.0 a6.0,6.0 0 0 0 6.0,6.0 v11.8"/>
<path d="M669.044,409.37495355387125 h53.30400000000009 a6.0,6.0 0 0 1 6.0,6.0 v24.10133333333336"/>
<rect rx="6.0" ry="6.0" x="655.044" y="396.37495355387125" width="28.0" height="26.0" class="combo"/>
<text x="669.044" y="409.37495355387125" class="combo">(...)</text>
<rect rx="6.0" ry="6.0" x="625.392" y="492.26695355387125" width="28.0" height="26.0" class="combo"/>
<text x="639.392" y="505.26695355387125" class="combo">[</text>
<rect rx="6.0" ry="6.0" x="684.696" y="491.25895355387127" width="28.0" height="26.0" class="combo"/>
<text x="698.696" y="504.25895355387127" class="combo">]</text>
<rect rx="6.0" ry="6.0" x="625.392" y="548.2949535538712" width="28.0" height="26.0" class="combo"/>
<text x="639.392" y="561.2949535538712" class="combo">{</text>
<rect rx="6.0" ry="6.0" x="684.696" y="547.2589535538713" width="28.0" height="26.0" class="combo"/>
<text x="698.696" y="560.2589535538713" class="combo">}</text>
<rect rx="6.0" ry="6.0" x="536.436" y="482.9989535538713" width="28.0" height="26.0" class="combo"/>
<text x="550.436" y="495.9989535538713" class="combo">^</text>
<rect rx="6.0" ry="6.0" x="595.74" y="475.15895355387124" width="28.0" height="26.0" class="combo"/>
<text x="609.74" y="488.15895355387124" class="combo">+</text>
<rect rx="6.0" ry="6.0" x="655.044" y="453.37495355387125" width="28.0" height="26.0" class="combo"/>
<text x="669.044" y="466.37495355387125" class="combo">*</text>
<rect rx="6.0" ry="6.0" x="714.3480000000001" y="473.1429535538713" width="28.0" height="26.0" class="combo"/>
<text x="728.3480000000001" y="486.1429535538713" class="combo">&amp;</text>
<rect rx="6.0" ry="6.0" x="773.652" y="512.6789535538712" width="28.0" height="26.0" class="combo"/>
<text x="787.652" y="525.6789535538712" class="combo">&gt;</text>
<rect rx="6.0" ry="6.0" x="536.436" y="538.9989535538713" width="28.0" height="26.0" class="combo"/>
<text x="550.436" y="551.9989535538713" class="combo">_</text>
<rect rx="6.0" ry="6.0" x="595.74" y="531.1869535538713" width="28.0" height="26.0" class="combo"/>
<text x="609.74" y="544.1869535538713" class="combo">-</text>
<rect rx="6.0" ry="6.0" x="655.044" y="509.37495355387125" width="28.0" height="26.0" class="combo"/>
<text x="669.044" y="522.3749535538713" class="combo">/</text>
<rect rx="6.0" ry="6.0" x="714.3480000000001" y="529.1429535538713" width="28.0" height="26.0" class="combo"/>
<text x="728.3480000000001" y="542.1429535538713" class="combo">|</text>
<rect rx="6.0" ry="6.0" x="773.652" y="568.6789535538712" width="28.0" height="26.0" class="combo"/>
<text x="787.652" y="581.6789535538712" class="combo">&lt;</text>
</g>
<g class="layer-NAV">
<text x="30.0" y="736.7499071077425" class="label">NAV:</text>
<rect rx="6.0" ry="6.0" x="32.0" y="826.0539071077425" width="55.303999999999995" height="52.0" class="ghost"/>
<rect rx="6.0" ry="6.0" x="91.30399999999999" y="786.5179071077425" width="55.303999999999995" height="52.0" class=""/>
<text x="118.95599999999999" y="812.5179071077425" class="tap"></text>
<rect rx="6.0" ry="6.0" x="150.608" y="766.7499071077425" width="55.303999999999995" height="52.0" class=""/>
<text x="178.26" y="792.7499071077425" class="tap"></text>
<rect rx="6.0" ry="6.0" x="209.91200000000003" y="788.5339071077425" width="55.303999999999995" height="52.0" class=""/>
<text x="237.56400000000002" y="814.5339071077425" class="tap"></text>
<rect rx="6.0" ry="6.0" x="269.21599999999995" y="796.3739071077425" width="55.303999999999995" height="52.0" class=""/>
<text x="296.86799999999994" y="822.3739071077425" class="tap">⏯</text>
<rect rx="6.0" ry="6.0" x="522.784" y="796.3739071077425" width="55.303999999999995" height="52.0" class=""/>
<text x="550.436" y="822.3739071077425" class="tap">
<tspan x="550.436" dy="-0.6em">PG</tspan><tspan x="550.436" dy="1.2em">UP</tspan></text>
<rect rx="6.0" ry="6.0" x="582.088" y="788.5339071077425" width="55.303999999999995" height="52.0" class=""/>
<text x="609.74" y="814.5339071077425" class="tap">
<tspan x="609.74" dy="-0.6em">󰭜</tspan><tspan x="609.74" dy="1.2em">WORD</tspan></text>
<rect rx="6.0" ry="6.0" x="641.3919999999999" y="766.7499071077425" width="55.303999999999995" height="52.0" class=""/>
<text x="669.044" y="792.7499071077425" class="tap"></text>
<rect rx="6.0" ry="6.0" x="700.696" y="786.5179071077425" width="55.303999999999995" height="52.0" class=""/>
<text x="728.3480000000001" y="812.5179071077425" class="tap">
<tspan x="728.3480000000001" dy="-0.6em">󰹿</tspan><tspan x="728.3480000000001" dy="1.2em">WORD</tspan></text>
<rect rx="6.0" ry="6.0" x="760.0" y="826.0539071077425" width="55.303999999999995" height="52.0" class="ghost"/>
<rect rx="6.0" ry="6.0" x="32.0" y="882.0539071077425" width="55.303999999999995" height="52.0" class=""/>
<rect rx="6.0" ry="6.0" x="91.30399999999999" y="842.5179071077425" width="55.303999999999995" height="52.0" class=""/>
<text x="118.95599999999999" y="868.5179071077425" class="tap">LGUI</text>
<text x="118.95599999999999" y="892.5179071077425" class="hold">sticky</text>
<rect rx="6.0" ry="6.0" x="150.608" y="822.7499071077425" width="55.303999999999995" height="52.0" class=""/>
<text x="178.26" y="848.7499071077425" class="tap">LSHFT</text>
<text x="178.26" y="872.7499071077425" class="hold">sticky</text>
<rect rx="6.0" ry="6.0" x="209.91200000000003" y="844.5339071077425" width="55.303999999999995" height="52.0" class=""/>
<text x="237.56400000000002" y="870.5339071077425" class="tap">LCTRL</text>
<text x="237.56400000000002" y="894.5339071077425" class="hold">sticky</text>
<rect rx="6.0" ry="6.0" x="269.21599999999995" y="852.3739071077425" width="55.303999999999995" height="52.0" class=""/>
<text x="296.86799999999994" y="878.3739071077425" class="tap">󰒭</text>
<text x="296.86799999999994" y="854.3739071077425" class="shifted">󰒮</text>
<rect rx="6.0" ry="6.0" x="522.784" y="852.3739071077425" width="55.303999999999995" height="52.0" class=""/>
<text x="550.436" y="878.3739071077425" class="tap">
<tspan x="550.436" dy="-0.6em">PG</tspan><tspan x="550.436" dy="1.2em">DN</tspan></text>
<rect rx="6.0" ry="6.0" x="582.088" y="844.5339071077425" width="55.303999999999995" height="52.0" class=""/>
<text x="609.74" y="870.5339071077425" class="tap"></text>
<text x="609.74" y="894.5339071077425" class="hold">HOME</text>
<rect rx="6.0" ry="6.0" x="641.3919999999999" y="822.7499071077425" width="55.303999999999995" height="52.0" class=""/>
<text x="669.044" y="848.7499071077425" class="tap"></text>
<rect rx="6.0" ry="6.0" x="700.696" y="842.5179071077425" width="55.303999999999995" height="52.0" class=""/>
<text x="728.3480000000001" y="868.5179071077425" class="tap"></text>
<text x="728.3480000000001" y="892.5179071077425" class="hold">END</text>
<rect rx="6.0" ry="6.0" x="760.0" y="882.0539071077425" width="55.303999999999995" height="52.0" class=""/>
<text x="787.652" y="908.0539071077425" class="tap">󰤄</text>
<rect rx="6.0" ry="6.0" x="32.0" y="938.0539071077425" width="55.303999999999995" height="52.0" class=""/>
<rect rx="6.0" ry="6.0" x="91.30399999999999" y="898.5179071077425" width="55.303999999999995" height="52.0" class=""/>
<rect rx="6.0" ry="6.0" x="150.608" y="878.7499071077425" width="55.303999999999995" height="52.0" class=""/>
<rect rx="6.0" ry="6.0" x="209.91200000000003" y="900.5899071077425" width="55.303999999999995" height="52.0" class=""/>
<text x="237.56400000000002" y="926.5899071077425" class="tap">LALT</text>
<text x="237.56400000000002" y="950.5899071077425" class="hold">sticky</text>
<rect rx="6.0" ry="6.0" x="269.21599999999995" y="908.3739071077425" width="55.303999999999995" height="52.0" class="ghost"/>
<rect rx="6.0" ry="6.0" x="522.784" y="908.3739071077425" width="55.303999999999995" height="52.0" class="ghost"/>
<rect rx="6.0" ry="6.0" x="582.088" y="900.5899071077425" width="55.303999999999995" height="52.0" class=""/>
<text x="609.74" y="926.5899071077425" class="tap">
<tspan x="609.74" dy="-0.6em">Prev</tspan><tspan x="609.74" dy="1.2em">Desktop</tspan></text>
<rect rx="6.0" ry="6.0" x="641.3919999999999" y="878.7499071077425" width="55.303999999999995" height="52.0" class=""/>
<rect rx="6.0" ry="6.0" x="700.696" y="898.5179071077425" width="55.303999999999995" height="52.0" class=""/>
<text x="728.3480000000001" y="924.5179071077425" class="tap">
<tspan x="728.3480000000001" dy="-0.6em">Next</tspan><tspan x="728.3480000000001" dy="1.2em">Desktop</tspan></text>
<rect rx="6.0" ry="6.0" x="760.0" y="938.0539071077425" width="55.303999999999995" height="52.0" class=""/>
<text x="787.652" y="964.0539071077425" class="tap">
<tspan x="787.652" dy="-0.6em">PRINT</tspan><tspan x="787.652" dy="1.2em">SCREEN</tspan></text>
<rect rx="6.0" ry="6.0" x="190.42400000000004" y="966.3339071077426" width="55.303999999999995" height="52.0" class=""/>
<g transform="rotate(15.0, 284.15695407686394, 1000.8386601744796)">
<rect rx="6.0" ry="6.0" x="256.50495407686395" y="974.8386601744796" width="55.303999999999995" height="52.0" class=""/>
</g>
<g transform="rotate(30.0, 350.59357474425406, 1010.6179071077424)">
<rect rx="6.0" ry="6.0" x="324.59357474425406" y="968.1539071077425" width="52.0" height="84.928" class=""/>
</g>
<g transform="rotate(-30.0, 493.40642525574594, 1010.6179071077424)">
<rect rx="6.0" ry="6.0" x="467.40642525574594" y="968.1539071077425" width="52.0" height="84.928" class=""/>
</g>
<g transform="rotate(-15.0, 563.0344648531952, 999.9835220494609)">
<rect rx="6.0" ry="6.0" x="535.3824648531952" y="973.9835220494609" width="55.303999999999995" height="52.0" class="held"/>
</g>
<rect rx="6.0" ry="6.0" x="601.5759999999999" y="966.3339071077426" width="55.303999999999995" height="52.0" class=""/>
</g>
<g class="layer-NUM">
<text x="30.0" y="1091.1248606616136" class="label">NUM:</text>
<rect rx="6.0" ry="6.0" x="32.0" y="1180.4288606616137" width="55.303999999999995" height="52.0" class="ghost"/>
<rect rx="6.0" ry="6.0" x="91.30399999999999" y="1140.8928606616137" width="55.303999999999995" height="52.0" class=""/>
<text x="118.95599999999999" y="1166.8928606616137" class="tap">F7</text>
<rect rx="6.0" ry="6.0" x="150.608" y="1121.1248606616136" width="55.303999999999995" height="52.0" class=""/>
<text x="178.26" y="1147.1248606616136" class="tap">F8</text>
<rect rx="6.0" ry="6.0" x="209.91200000000003" y="1142.9088606616137" width="55.303999999999995" height="52.0" class=""/>
<text x="237.56400000000002" y="1168.9088606616137" class="tap">F9</text>
<rect rx="6.0" ry="6.0" x="269.21599999999995" y="1150.7488606616137" width="55.303999999999995" height="52.0" class=""/>
<text x="296.86799999999994" y="1176.7488606616137" class="tap">F10</text>
<rect rx="6.0" ry="6.0" x="522.784" y="1150.7488606616137" width="55.303999999999995" height="52.0" class=""/>
<text x="550.436" y="1176.7488606616137" class="tap">+</text>
<rect rx="6.0" ry="6.0" x="582.088" y="1142.9088606616137" width="55.303999999999995" height="52.0" class=""/>
<text x="609.74" y="1168.9088606616137" class="tap">7</text>
<rect rx="6.0" ry="6.0" x="641.3919999999999" y="1121.1248606616136" width="55.303999999999995" height="52.0" class=""/>
<text x="669.044" y="1147.1248606616136" class="tap">8</text>
<rect rx="6.0" ry="6.0" x="700.696" y="1140.8928606616137" width="55.303999999999995" height="52.0" class=""/>
<text x="728.3480000000001" y="1166.8928606616137" class="tap">9</text>
<rect rx="6.0" ry="6.0" x="760.0" y="1180.4288606616137" width="55.303999999999995" height="52.0" class="ghost"/>
<rect rx="6.0" ry="6.0" x="32.0" y="1236.4288606616137" width="55.303999999999995" height="52.0" class=""/>
<text x="59.652" y="1262.4288606616137" class="tap">F12</text>
<rect rx="6.0" ry="6.0" x="91.30399999999999" y="1196.8928606616137" width="55.303999999999995" height="52.0" class=""/>
<text x="118.95599999999999" y="1222.8928606616137" class="tap">F4</text>
<rect rx="6.0" ry="6.0" x="150.608" y="1177.1248606616136" width="55.303999999999995" height="52.0" class=""/>
<text x="178.26" y="1203.1248606616136" class="tap">F5</text>
<rect rx="6.0" ry="6.0" x="209.91200000000003" y="1198.9088606616137" width="55.303999999999995" height="52.0" class=""/>
<text x="237.56400000000002" y="1224.9088606616137" class="tap">F6</text>
<rect rx="6.0" ry="6.0" x="269.21599999999995" y="1206.7488606616137" width="55.303999999999995" height="52.0" class=""/>
<text x="296.86799999999994" y="1232.7488606616137" class="tap">F11</text>
<rect rx="6.0" ry="6.0" x="522.784" y="1206.7488606616137" width="55.303999999999995" height="52.0" class=""/>
<text x="550.436" y="1232.7488606616137" class="tap">-</text>
<rect rx="6.0" ry="6.0" x="582.088" y="1198.9088606616137" width="55.303999999999995" height="52.0" class=""/>
<text x="609.74" y="1224.9088606616137" class="tap">4</text>
<rect rx="6.0" ry="6.0" x="641.3919999999999" y="1177.1248606616136" width="55.303999999999995" height="52.0" class=""/>
<text x="669.044" y="1203.1248606616136" class="tap">5</text>
<rect rx="6.0" ry="6.0" x="700.696" y="1196.8928606616137" width="55.303999999999995" height="52.0" class=""/>
<text x="728.3480000000001" y="1222.8928606616137" class="tap">6</text>
<rect rx="6.0" ry="6.0" x="760.0" y="1236.4288606616137" width="55.303999999999995" height="52.0" class=""/>
<text x="787.652" y="1262.4288606616137" class="tap">*</text>
<rect rx="6.0" ry="6.0" x="32.0" y="1292.4288606616137" width="55.303999999999995" height="52.0" class=""/>
<text x="59.652" y="1318.4288606616137" class="tap">F13</text>
<rect rx="6.0" ry="6.0" x="91.30399999999999" y="1252.8928606616137" width="55.303999999999995" height="52.0" class=""/>
<text x="118.95599999999999" y="1278.8928606616137" class="tap">F1</text>
<rect rx="6.0" ry="6.0" x="150.608" y="1233.1248606616136" width="55.303999999999995" height="52.0" class=""/>
<text x="178.26" y="1259.1248606616136" class="tap">F2</text>
<rect rx="6.0" ry="6.0" x="209.91200000000003" y="1254.9648606616136" width="55.303999999999995" height="52.0" class=""/>
<text x="237.56400000000002" y="1280.9648606616136" class="tap">F3</text>
<rect rx="6.0" ry="6.0" x="269.21599999999995" y="1262.7488606616137" width="55.303999999999995" height="52.0" class="ghost"/>
<rect rx="6.0" ry="6.0" x="522.784" y="1262.7488606616137" width="55.303999999999995" height="52.0" class="ghost"/>
<rect rx="6.0" ry="6.0" x="582.088" y="1254.9648606616136" width="55.303999999999995" height="52.0" class=""/>
<text x="609.74" y="1280.9648606616136" class="tap">1</text>
<rect rx="6.0" ry="6.0" x="641.3919999999999" y="1233.1248606616136" width="55.303999999999995" height="52.0" class=""/>
<text x="669.044" y="1259.1248606616136" class="tap">2</text>
<rect rx="6.0" ry="6.0" x="700.696" y="1252.8928606616137" width="55.303999999999995" height="52.0" class=""/>
<text x="728.3480000000001" y="1278.8928606616137" class="tap">3</text>
<rect rx="6.0" ry="6.0" x="760.0" y="1292.4288606616137" width="55.303999999999995" height="52.0" class=""/>
<text x="787.652" y="1318.4288606616137" class="tap">/</text>
<rect rx="6.0" ry="6.0" x="190.42400000000004" y="1320.7088606616137" width="55.303999999999995" height="52.0" class=""/>
<g transform="rotate(15.0, 284.15695407686394, 1355.2136137283508)">
<rect rx="6.0" ry="6.0" x="256.50495407686395" y="1329.2136137283508" width="55.303999999999995" height="52.0" class=""/>
</g>
<g transform="rotate(30.0, 350.59357474425406, 1364.9928606616136)">
<rect rx="6.0" ry="6.0" x="324.59357474425406" y="1322.5288606616136" width="52.0" height="84.928" class="held"/>
</g>
<g transform="rotate(-30.0, 493.40642525574594, 1364.9928606616136)">
<rect rx="6.0" ry="6.0" x="467.40642525574594" y="1322.5288606616136" width="52.0" height="84.928" class=""/>
<text x="493.40642525574594" y="1364.9928606616136" class="tap">.</text>
</g>
<g transform="rotate(-15.0, 563.0344648531952, 1354.358475603332)">
<rect rx="6.0" ry="6.0" x="535.3824648531952" y="1328.358475603332" width="55.303999999999995" height="52.0" class=""/>
<text x="563.0344648531952" y="1354.358475603332" class="tap">0</text>
</g>
<rect rx="6.0" ry="6.0" x="601.5759999999999" y="1320.7088606616137" width="55.303999999999995" height="52.0" class=""/>
</g>
<g class="layer-ADJ">
<text x="30.0" y="1445.499814215485" class="label">ADJ:</text>
<rect rx="6.0" ry="6.0" x="32.0" y="1534.803814215485" width="55.303999999999995" height="52.0" class="ghost"/>
<rect rx="6.0" ry="6.0" x="91.30399999999999" y="1495.267814215485" width="55.303999999999995" height="52.0" class=""/>
<rect rx="6.0" ry="6.0" x="150.608" y="1475.499814215485" width="55.303999999999995" height="52.0" class=""/>
<text x="178.26" y="1501.499814215485" class="tap">
<tspan x="178.26" dy="-0.6em">to</tspan><tspan x="178.26" dy="1.2em">BASE</tspan></text>
<rect rx="6.0" ry="6.0" x="209.91200000000003" y="1497.283814215485" width="55.303999999999995" height="52.0" class=""/>
<text x="237.56400000000002" y="1523.283814215485" class="tap">
<tspan x="237.56400000000002" dy="-1.2em">to</tspan><tspan x="237.56400000000002" dy="1.2em">BASE</tspan><tspan x="237.56400000000002" dy="1.2em">OSX</tspan></text>
<rect rx="6.0" ry="6.0" x="269.21599999999995" y="1505.123814215485" width="55.303999999999995" height="52.0" class=""/>
<text x="296.86799999999994" y="1531.123814215485" class="tap">BL</text>
<rect rx="6.0" ry="6.0" x="522.784" y="1505.123814215485" width="55.303999999999995" height="52.0" class=""/>
<text x="550.436" y="1531.123814215485" class="tap">BL</text>
<rect rx="6.0" ry="6.0" x="582.088" y="1497.283814215485" width="55.303999999999995" height="52.0" class=""/>
<rect rx="6.0" ry="6.0" x="641.3919999999999" y="1475.499814215485" width="55.303999999999995" height="52.0" class=""/>
<rect rx="6.0" ry="6.0" x="700.696" y="1495.267814215485" width="55.303999999999995" height="52.0" class=""/>
<rect rx="6.0" ry="6.0" x="760.0" y="1534.803814215485" width="55.303999999999995" height="52.0" class="ghost"/>
<rect rx="6.0" ry="6.0" x="32.0" y="1590.803814215485" width="55.303999999999995" height="52.0" class=""/>
<text x="59.652" y="1616.803814215485" class="tap">
<tspan x="59.652" dy="-0.6em">BT</tspan><tspan x="59.652" dy="1.2em">CLR</tspan></text>
<rect rx="6.0" ry="6.0" x="91.30399999999999" y="1551.267814215485" width="55.303999999999995" height="52.0" class=""/>
<text x="118.95599999999999" y="1577.267814215485" class="tap">
<tspan x="118.95599999999999" dy="-0.6em">BT</tspan><tspan x="118.95599999999999" dy="1.2em">2</tspan></text>
<rect rx="6.0" ry="6.0" x="150.608" y="1531.499814215485" width="55.303999999999995" height="52.0" class=""/>
<text x="178.26" y="1557.499814215485" class="tap">
<tspan x="178.26" dy="-0.6em">PC</tspan><tspan x="178.26" dy="1.2em">connect</tspan></text>
<rect rx="6.0" ry="6.0" x="209.91200000000003" y="1553.283814215485" width="55.303999999999995" height="52.0" class=""/>
<text x="237.56400000000002" y="1579.283814215485" class="tap">
<tspan x="237.56400000000002" dy="-0.6em">OSX</tspan><tspan x="237.56400000000002" dy="1.2em">connect</tspan></text>
<rect rx="6.0" ry="6.0" x="269.21599999999995" y="1561.123814215485" width="55.303999999999995" height="52.0" class=""/>
<text x="296.86799999999994" y="1587.123814215485" class="tap">reset</text>
<rect rx="6.0" ry="6.0" x="522.784" y="1561.123814215485" width="55.303999999999995" height="52.0" class=""/>
<text x="550.436" y="1587.123814215485" class="tap">reset</text>
<rect rx="6.0" ry="6.0" x="582.088" y="1553.283814215485" width="55.303999999999995" height="52.0" class=""/>
<rect rx="6.0" ry="6.0" x="641.3919999999999" y="1531.499814215485" width="55.303999999999995" height="52.0" class=""/>
<rect rx="6.0" ry="6.0" x="700.696" y="1551.267814215485" width="55.303999999999995" height="52.0" class=""/>
<rect rx="6.0" ry="6.0" x="760.0" y="1590.803814215485" width="55.303999999999995" height="52.0" class=""/>
<rect rx="6.0" ry="6.0" x="32.0" y="1646.803814215485" width="55.303999999999995" height="52.0" class=""/>
<rect rx="6.0" ry="6.0" x="91.30399999999999" y="1607.267814215485" width="55.303999999999995" height="52.0" class=""/>
<text x="118.95599999999999" y="1633.267814215485" class="tap">
<tspan x="118.95599999999999" dy="-0.6em">BT</tspan><tspan x="118.95599999999999" dy="1.2em">4</tspan></text>
<rect rx="6.0" ry="6.0" x="150.608" y="1587.499814215485" width="55.303999999999995" height="52.0" class=""/>
<text x="178.26" y="1613.499814215485" class="tap">
<tspan x="178.26" dy="-0.6em">BT</tspan><tspan x="178.26" dy="1.2em">3</tspan></text>
<rect rx="6.0" ry="6.0" x="209.91200000000003" y="1609.339814215485" width="55.303999999999995" height="52.0" class=""/>
<text x="237.56400000000002" y="1635.339814215485" class="tap">
<tspan x="237.56400000000002" dy="-0.6em">OUT</tspan><tspan x="237.56400000000002" dy="1.2em">TOG</tspan></text>
<rect rx="6.0" ry="6.0" x="269.21599999999995" y="1617.123814215485" width="55.303999999999995" height="52.0" class="ghost"/>
<rect rx="6.0" ry="6.0" x="522.784" y="1617.123814215485" width="55.303999999999995" height="52.0" class="ghost"/>
<rect rx="6.0" ry="6.0" x="582.088" y="1609.339814215485" width="55.303999999999995" height="52.0" class=""/>
<rect rx="6.0" ry="6.0" x="641.3919999999999" y="1587.499814215485" width="55.303999999999995" height="52.0" class=""/>
<rect rx="6.0" ry="6.0" x="700.696" y="1607.267814215485" width="55.303999999999995" height="52.0" class=""/>
<rect rx="6.0" ry="6.0" x="760.0" y="1646.803814215485" width="55.303999999999995" height="52.0" class=""/>
<rect rx="6.0" ry="6.0" x="190.42400000000004" y="1675.083814215485" width="55.303999999999995" height="52.0" class=""/>
<g transform="rotate(15.0, 284.15695407686394, 1709.5885672822221)">
<rect rx="6.0" ry="6.0" x="256.50495407686395" y="1683.5885672822221" width="55.303999999999995" height="52.0" class=""/>
</g>
<g transform="rotate(30.0, 350.59357474425406, 1719.367814215485)">
<rect rx="6.0" ry="6.0" x="324.59357474425406" y="1676.903814215485" width="52.0" height="84.928" class=""/>
</g>
<g transform="rotate(-30.0, 493.40642525574594, 1719.367814215485)">
<rect rx="6.0" ry="6.0" x="467.40642525574594" y="1676.903814215485" width="52.0" height="84.928" class=""/>
</g>
<g transform="rotate(-15.0, 563.0344648531952, 1708.7334291572033)">
<rect rx="6.0" ry="6.0" x="535.3824648531952" y="1682.7334291572033" width="55.303999999999995" height="52.0" class=""/>
</g>
<rect rx="6.0" ry="6.0" x="601.5759999999999" y="1675.083814215485" width="55.303999999999995" height="52.0" class="held"/>
</g>
</svg>
