<svg width="847.3040000000001" height="1827.8747677693564" viewBox="0 0 847.3040000000001 1827.8747677693564" class="keymap" xmlns="http://www.w3.org/2000/svg" xmlns:xlink="http://www.w3.org/1999/xlink">
<defs>/* start glyphs */
<svg id="tabler:lock">
<svg xmlns="http://www.w3.org/2000/svg" class="icon icon-tabler icon-tabler-lock" viewBox="0 0 24 24" stroke-width="2" stroke="currentColor" fill="none" stroke-linecap="round" stroke-linejoin="round">
  <path stroke="none" d="M0 0h24v24H0z" fill="none"/>
  <path d="M5 13a2 2 0 0 1 2 -2h10a2 2 0 0 1 2 2v6a2 2 0 0 1 -2 2h-10a2 2 0 0 1 -2 -2v-6z" />
  <path d="M11 16a1 1 0 1 0 2 0a1 1 0 0 0 -2 0" />
  <path d="M8 11v-4a4 4 0 1 1 8 0v4" />
</svg>



</svg>
<svg id="mdi:volume-off">
<svg xmlns="http://www.w3.org/2000/svg" id="mdi-volume-off" viewBox="0 0 24 24"><path d="M12,4L9.91,6.09L12,8.18M4.27,3L3,4.27L7.73,9H3V15H7L12,20V13.27L16.25,17.53C15.58,18.04 14.83,18.46 14,18.7V20.77C15.38,20.45 16.63,19.82 17.68,18.96L19.73,21L21,19.73L12,10.73M19,12C19,12.94 18.8,13.82 18.46,14.64L19.97,16.15C20.62,14.91 21,13.5 21,12C21,7.72 18,4.14 14,3.23V5.29C16.89,6.15 19,8.83 19,12M16.5,12C16.5,10.23 15.5,8.71 14,7.97V10.18L16.45,12.63C16.5,12.43 16.5,12.21 16.5,12Z" /></svg>
</svg>
<svg id="mdi:arrow-up-bold">
<svg xmlns="http://www.w3.org/2000/svg" id="mdi-arrow-up-bold" viewBox="0 0 24 24"><path d="M15,20H9V12H4.16L12,4.16L19.84,12H15V20Z" /></svg>
</svg>
<svg id="mdi:power-sleep">
<svg xmlns="http://www.w3.org/2000/svg" id="mdi-power-sleep" viewBox="0 0 24 24"><path d="M18.73,18C15.4,21.69 9.71,22 6,18.64C2.33,15.31 2.04,9.62 5.37,5.93C6.9,4.25 9,3.2 11.27,3C7.96,6.7 8.27,12.39 12,15.71C13.63,17.19 15.78,18 18,18C18.25,18 18.5,18 18.73,18Z" /></svg>
</svg>
<svg id="tabler:sticker">
<svg xmlns="http://www.w3.org/2000/svg" class="icon icon-tabler icon-tabler-sticker" viewBox="0 0 24 24" stroke-width="2" stroke="currentColor" fill="none" stroke-linecap="round" stroke-linejoin="round">
  <path stroke="none" d="M0 0h24v24H0z" fill="none"/>
  <path d="M20 12l-2 .5a6 6 0 0 1 -6.5 -6.5l.5 -2l8 8" />
  <path d="M20 12a8 8 0 1 1 -8 -8" />
</svg>



</svg>
<svg id="mdi:keyboard-space">
<svg xmlns="http://www.w3.org/2000/svg" id="mdi-keyboard-space" viewBox="0 0 24 24"><path d="M3 15H5V19H19V15H21V19C21 20.1 20.1 21 19 21H5C3.9 21 3 20.1 3 19V15Z" /></svg>
</svg>
<svg id="mdi:bluetooth-off">
<svg xmlns="http://www.w3.org/2000/svg" id="mdi-bluetooth-off" viewBox="0 0 24 24"><path d="M13,5.83L14.88,7.71L13.28,9.31L14.69,10.72L17.71,7.7L12,2H11V7.03L13,9.03M5.41,4L4,5.41L10.59,12L5,17.59L6.41,19L11,14.41V22H12L16.29,17.71L18.59,20L20,18.59M13,18.17V14.41L14.88,16.29" /></svg>
</svg>
<svg id="mdi:apple-keyboard-shift">
<svg xmlns="http://www.w3.org/2000/svg" id="mdi-apple-keyboard-shift" viewBox="0 0 24 24"><path d="M15,18V12H17.17L12,6.83L6.83,12H9V18H15M12,4L22,14H17V20H7V14H2L12,4Z" /></svg>
</svg>
<svg id="mdi:apple-keyboard-control">
<svg xmlns="http://www.w3.org/2000/svg" id="mdi-apple-keyboard-control" viewBox="0 0 24 24"><path d="M19.78,11.78L18.36,13.19L12,6.83L5.64,13.19L4.22,11.78L12,4L19.78,11.78Z" /></svg>
</svg>
<svg id="mdi:skip-next">
<svg xmlns="http://www.w3.org/2000/svg" id="mdi-skip-next" viewBox="0 0 24 24"><path d="M16,18H18V6H16M6,18L14.5,12L6,6V18Z" /></svg>
</svg>
<svg id="mdi:redo">
<svg xmlns="http://www.w3.org/2000/svg" id="mdi-redo" viewBox="0 0 24 24"><path d="M18.4,10.6C16.55,9 14.15,8 11.5,8C6.85,8 2.92,11.03 1.54,15.22L3.9,16C4.95,12.81 7.95,10.5 11.5,10.5C13.45,10.5 15.23,11.22 16.62,12.38L13,16H22V7L18.4,10.6Z" /></svg>
</svg>
<svg id="mdi:play-pause">
<svg xmlns="http://www.w3.org/2000/svg" id="mdi-play-pause" viewBox="0 0 24 24"><path d="M3,5V19L11,12M13,19H16V5H13M18,5V19H21V5" /></svg>
</svg>
<svg id="mdi:backspace-reverse-outline">
<svg xmlns="http://www.w3.org/2000/svg" id="mdi-backspace-reverse-outline" viewBox="0 0 24 24"><path d="M5,15.59L6.41,17L10,13.41L13.59,17L15,15.59L11.41,12L15,8.41L13.59,7L10,10.59L6.41,7L5,8.41L8.59,12L5,15.59M2,3A2,2 0 0,0 0,5V19A2,2 0 0,0 2,21H17C17.69,21 18.23,20.64 18.59,20.11L24,12L18.59,3.88C18.23,3.35 17.69,3 17,3H2M2,5H17L21.72,12L17,19H2V5Z" /></svg>
</svg>
<svg id="mdi:caps-lock">
<svg xmlns="http://www.w3.org/2000/svg" id="mdi-caps-lock" viewBox="0 0 24 24"><path d="M9.96,13.71L12,8.29L14.03,13.72M11.14,6L6.43,18H8.36L9.32,15.43H14.68L15.64,18H17.57L12.86,6H11.14M20,2H4C2.89,2 2,2.89 2,4V20C2,21.11 2.9,22 4,22H20C21.11,22 22,21.11 22,20V4C22,2.89 21.1,2 20,2M20,20H4V4H20V20Z" /></svg>
</svg>
<svg id="mdi:progress-download">
<svg xmlns="http://www.w3.org/2000/svg" id="mdi-progress-download" viewBox="0 0 24 24"><path d="M13,2.03C17.73,2.5 21.5,6.25 21.95,11C22.5,16.5 18.5,21.38 13,21.93V19.93C16.64,19.5 19.5,16.61 19.96,12.97C20.5,8.58 17.39,4.59 13,4.05V2.05L13,2.03M11,2.06V4.06C9.57,4.26 8.22,4.84 7.1,5.74L5.67,4.26C7.19,3 9.05,2.25 11,2.06M4.26,5.67L5.69,7.1C4.8,8.23 4.24,9.58 4.05,11H2.05C2.25,9.04 3,7.19 4.26,5.67M2.06,13H4.06C4.24,14.42 4.81,15.77 5.69,16.9L4.27,18.33C3.03,16.81 2.26,14.96 2.06,13M7.1,18.37C8.23,19.25 9.58,19.82 11,20V22C9.04,21.79 7.18,21 5.67,19.74L7.1,18.37M12,16.5L7.5,12H11V8H13V12H16.5L12,16.5Z" /></svg>
</svg>
<svg id="mdi:volume-low">
<svg xmlns="http://www.w3.org/2000/svg" id="mdi-volume-low" viewBox="0 0 24 24"><path d="M7,9V15H11L16,20V4L11,9H7Z" /></svg>
</svg>
<svg id="mdi:skip-previous">
<svg xmlns="http://www.w3.org/2000/svg" id="mdi-skip-previous" viewBox="0 0 24 24"><path d="M6,18V6H8V18H6M9.5,12L18,6V18L9.5,12Z" /></svg>
</svg>
<svg id="mdi:backspace">
<svg xmlns="http://www.w3.org/2000/svg" id="mdi-backspace" viewBox="0 0 24 24"><path d="M22,3H7C6.31,3 5.77,3.35 5.41,3.88L0,12L5.41,20.11C5.77,20.64 6.31,21 7,21H22A2,2 0 0,0 24,19V5A2,2 0 0,0 22,3M19,15.59L17.59,17L14,13.41L10.41,17L9,15.59L12.59,12L9,8.41L10.41,7L14,10.59L17.59,7L19,8.41L15.41,12" /></svg>
</svg>
<svg id="mdi:bluetooth-connect">
<svg xmlns="http://www.w3.org/2000/svg" id="mdi-bluetooth-connect" viewBox="0 0 24 24"><path d="M19,10L17,12L19,14L21,12M14.88,16.29L13,18.17V14.41M13,5.83L14.88,7.71L13,9.58M17.71,7.71L12,2H11V9.58L6.41,5L5,6.41L10.59,12L5,17.58L6.41,19L11,14.41V22H12L17.71,16.29L13.41,12M7,12L5,10L3,12L5,14L7,12Z" /></svg>
</svg>
<svg id="mdi:backup-restore">
<svg xmlns="http://www.w3.org/2000/svg" id="mdi-backup-restore" viewBox="0 0 24 24"><path d="M12,3A9,9 0 0,0 3,12H0L4,16L8,12H5A7,7 0 0,1 12,5A7,7 0 0,1 19,12A7,7 0 0,1 12,19C10.5,19 9.09,18.5 7.94,17.7L6.5,19.14C8.04,20.3 9.94,21 12,21A9,9 0 0,0 21,12A9,9 0 0,0 12,3M14,12A2,2 0 0,0 12,10A2,2 0 0,0 10,12A2,2 0 0,0 12,14A2,2 0 0,0 14,12Z" /></svg>
</svg>
<svg id="mdi:arrow-down-bold">
<svg xmlns="http://www.w3.org/2000/svg" id="mdi-arrow-down-bold" viewBox="0 0 24 24"><path d="M9,4H15V12H19.84L12,19.84L4.16,12H9V4Z" /></svg>
</svg>
<svg id="mdi:usb">
<svg xmlns="http://www.w3.org/2000/svg" id="mdi-usb" viewBox="0 0 24 24"><path d="M15,7V11H16V13H13V5H15L12,1L9,5H11V13H8V10.93C8.7,10.56 9.2,9.85 9.2,9C9.2,7.78 8.21,6.8 7,6.8C5.78,6.8 4.8,7.78 4.8,9C4.8,9.85 5.3,10.56 6,10.93V13A2,2 0 0,0 8,15H11V18.05C10.29,18.41 9.8,19.15 9.8,20A2.2,2.2 0 0,0 12,22.2A2.2,2.2 0 0,0 14.2,20C14.2,19.15 13.71,18.41 13,18.05V15H16A2,2 0 0,0 18,13V11H19V7H15Z" /></svg>
</svg>
<svg id="mdi:volume-high">
<svg xmlns="http://www.w3.org/2000/svg" id="mdi-volume-high" viewBox="0 0 24 24"><path d="M14,3.23V5.29C16.89,6.15 19,8.83 19,12C19,15.17 16.89,17.84 14,18.7V20.77C18,19.86 21,16.28 21,12C21,7.72 18,4.14 14,3.23M16.5,12C16.5,10.23 15.5,8.71 14,7.97V16C15.5,15.29 16.5,13.76 16.5,12M3,9V15H7L12,20V4L7,9H3Z" /></svg>
</svg>
<svg id="mdi:content-copy">
<svg xmlns="http://www.w3.org/2000/svg" id="mdi-content-copy" viewBox="0 0 24 24"><path d="M19,21H8V7H19M19,5H8A2,2 0 0,0 6,7V21A2,2 0 0,0 8,23H19A2,2 0 0,0 21,21V7A2,2 0 0,0 19,5M16,1H4A2,2 0 0,0 2,3V17H4V3H16V1Z" /></svg>
</svg>
<svg id="mdi:arrow-left-bold">
<svg xmlns="http://www.w3.org/2000/svg" id="mdi-arrow-left-bold" viewBox="0 0 24 24"><path d="M20,9V15H12V19.84L4.16,12L12,4.16V9H20Z" /></svg>
</svg>
<svg id="mdi:apple-keyboard-option">
<svg xmlns="http://www.w3.org/2000/svg" id="mdi-apple-keyboard-option" viewBox="0 0 24 24"><path d="M3,4H9.11L16.15,18H21V20H14.88L7.84,6H3V4M14,4H21V6H14V4Z" /></svg>
</svg>
<svg id="mdi:pan-up">
<svg xmlns="http://www.w3.org/2000/svg" id="mdi-pan-up" viewBox="0 0 24 24"><path d="M12,2.5L8,7H16L12,2.5M12,10A2,2 0 0,0 10,12A2,2 0 0,0 12,14A2,2 0 0,0 14,12A2,2 0 0,0 12,10Z" /></svg>
</svg>
<svg id="tabler:x">
<svg xmlns="http://www.w3.org/2000/svg" class="icon icon-tabler icon-tabler-x" viewBox="0 0 24 24" stroke-width="2" stroke="currentColor" fill="none" stroke-linecap="round" stroke-linejoin="round">
  <path stroke="none" d="M0 0h24v24H0z" fill="none"/>
  <path d="M18 6l-12 12" />
  <path d="M6 6l12 12" />
</svg>



</svg>
<svg id="mdi:star-four-points">
<svg xmlns="http://www.w3.org/2000/svg" id="mdi-star-four-points" viewBox="0 0 24 24"><path d="M12,1L9,9L1,12L9,15L12,23L15,15L23,12L15,9L12,1Z" /></svg>
</svg>
<svg id="mdi:microsoft-windows">
<svg xmlns="http://www.w3.org/2000/svg" id="mdi-microsoft-windows" viewBox="0 0 24 24"><path d="M3,12V6.75L9,5.43V11.91L3,12M20,3V11.75L10,11.9V5.21L20,3M3,13L9,13.09V19.9L3,18.75V13M20,13.25V22L10,20.09V13.1L20,13.25Z" /></svg>
</svg>
<svg id="mdi:pan-down">
<svg xmlns="http://www.w3.org/2000/svg" id="mdi-pan-down" viewBox="0 0 24 24"><path d="M12,10A2,2 0 0,0 10,12A2,2 0 0,0 12,14A2,2 0 0,0 14,12A2,2 0 0,0 12,10M8,17L12,21.5L16,17H8Z" /></svg>
</svg>
<svg id="mdi:keyboard-return">
<svg xmlns="http://www.w3.org/2000/svg" id="mdi-keyboard-return" viewBox="0 0 24 24"><path d="M19,7V11H5.83L9.41,7.41L8,6L2,12L8,18L9.41,16.58L5.83,13H21V7H19Z" /></svg>
</svg>
<svg id="mdi:apple">
<svg xmlns="http://www.w3.org/2000/svg" id="mdi-apple" viewBox="0 0 24 24"><path d="M18.71,19.5C17.88,20.74 17,21.95 15.66,21.97C14.32,22 13.89,21.18 12.37,21.18C10.84,21.18 10.37,21.95 9.1,22C7.79,22.05 6.8,20.68 5.96,19.47C4.25,17 2.94,12.45 4.7,9.39C5.57,7.87 7.13,6.91 8.82,6.88C10.1,6.86 11.32,7.75 12.11,7.75C12.89,7.75 14.37,6.68 15.92,6.84C16.57,6.87 18.39,7.1 19.56,8.82C19.47,8.88 17.39,10.1 17.41,12.63C17.44,15.65 20.06,16.66 20.09,16.67C20.06,16.74 19.67,18.11 18.71,19.5M13,3.5C13.73,2.67 14.94,2.04 15.94,2C16.07,3.17 15.6,4.35 14.9,5.19C14.21,6.04 13.07,6.7 11.95,6.61C11.8,5.46 12.36,4.26 13,3.5Z" /></svg>
</svg>
<svg id="mdi:arrow-right-bold">
<svg xmlns="http://www.w3.org/2000/svg" id="mdi-arrow-right-bold" viewBox="0 0 24 24"><path d="M4,15V9H12V4.16L19.84,12L12,19.84V15H4Z" /></svg>
</svg>
<svg id="mdi:brightness-7">
<svg xmlns="http://www.w3.org/2000/svg" id="mdi-brightness-7" viewBox="0 0 24 24"><path d="M12,8A4,4 0 0,0 8,12A4,4 0 0,0 12,16A4,4 0 0,0 16,12A4,4 0 0,0 12,8M12,18A6,6 0 0,1 6,12A6,6 0 0,1 12,6A6,6 0 0,1 18,12A6,6 0 0,1 12,18M20,8.69V4H15.31L12,0.69L8.69,4H4V8.69L0.69,12L4,15.31V20H8.69L12,23.31L15.31,20H20V15.31L23.31,12L20,8.69Z" /></svg>
</svg>
<svg id="mdi:apple-keyboard-command">
<svg xmlns="http://www.w3.org/2000/svg" id="mdi-apple-keyboard-command" viewBox="0 0 24 24"><path d="M6,2A4,4 0 0,1 10,6V8H14V6A4,4 0 0,1 18,2A4,4 0 0,1 22,6A4,4 0 0,1 18,10H16V14H18A4,4 0 0,1 22,18A4,4 0 0,1 18,22A4,4 0 0,1 14,18V16H10V18A4,4 0 0,1 6,22A4,4 0 0,1 2,18A4,4 0 0,1 6,14H8V10H6A4,4 0 0,1 2,6A4,4 0 0,1 6,2M16,18A2,2 0 0,0 18,20A2,2 0 0,0 20,18A2,2 0 0,0 18,16H16V18M14,10H10V14H14V10M6,16A2,2 0 0,0 4,18A2,2 0 0,0 6,20A2,2 0 0,0 8,18V16H6M8,6A2,2 0 0,0 6,4A2,2 0 0,0 4,6A2,2 0 0,0 6,8H8V6M18,8A2,2 0 0,0 20,6A2,2 0 0,0 18,4A2,2 0 0,0 16,6V8H18Z" /></svg>
</svg>
<svg id="mdi:bluetooth">
<svg xmlns="http://www.w3.org/2000/svg" id="mdi-bluetooth" viewBox="0 0 24 24"><path d="M14.88,16.29L13,18.17V14.41M13,5.83L14.88,7.71L13,9.58M17.71,7.71L12,2H11V9.58L6.41,5L5,6.41L10.59,12L5,17.58L6.41,19L11,14.41V22H12L17.71,16.29L13.41,12L17.71,7.71Z" /></svg>
</svg>
<svg id="mdi:keyboard-tab">
<svg xmlns="http://www.w3.org/2000/svg" id="mdi-keyboard-tab" viewBox="0 0 24 24"><path d="M20,18H22V6H20M11.59,7.41L15.17,11H1V13H15.17L11.59,16.58L13,18L19,12L13,6L11.59,7.41Z" /></svg>
</svg>
<svg id="mdi:brightness-5">
<svg xmlns="http://www.w3.org/2000/svg" id="mdi-brightness-5" viewBox="0 0 24 24"><path d="M12,18A6,6 0 0,1 6,12A6,6 0 0,1 12,6A6,6 0 0,1 18,12A6,6 0 0,1 12,18M20,15.31L23.31,12L20,8.69V4H15.31L12,0.69L8.69,4H4V8.69L0.69,12L4,15.31V20H8.69L12,23.31L15.31,20H20V15.31Z" /></svg>
</svg>
<svg id="mdi:toggle-switch-outline">
<svg xmlns="http://www.w3.org/2000/svg" id="mdi-toggle-switch-outline" viewBox="0 0 24 24"><path d="M17 6H7C3.69 6 1 8.69 1 12S3.69 18 7 18H17C20.31 18 23 15.31 23 12S20.31 6 17 6M17 16H7C4.79 16 3 14.21 3 12S4.79 8 7 8H17C19.21 8 21 9.79 21 12S19.21 16 17 16M17 9C15.34 9 14 10.34 14 12S15.34 15 17 15 20 13.66 20 12 18.66 9 17 9Z" /></svg>
</svg>
<svg id="tabler:arrow-left-circle">
<svg xmlns="http://www.w3.org/2000/svg" class="icon icon-tabler icon-tabler-arrow-left-circle" viewBox="0 0 24 24" stroke-width="2" stroke="currentColor" fill="none" stroke-linecap="round" stroke-linejoin="round">
  <path stroke="none" d="M0 0h24v24H0z" fill="none"/>
  <path d="M17 12h-14" />
  <path d="M6 9l-3 3l3 3" />
  <path d="M19 12m-2 0a2 2 0 1 0 4 0a2 2 0 1 0 -4 0" />
</svg>



</svg>
</defs>/* end glyphs */
<style>/* inherit to force styles through use tags*/
svg path {
    fill: inherit;
}
/* font and background color specifications */
svg.keymap {
    font-family: SFMono-Regular,Consolas,Liberation Mono,Menlo,monospace;
    font-size: 14px;
    font-kerning: normal;
    text-rendering: optimizeLegibility;
    fill: #24292e;
}

/* default key styling */
rect.key {
    fill: #f6f8fa;
    stroke: #c9cccf;
    stroke-width: 1;
}

/* color accent for combo boxes */
rect.combo {
    fill: #cdf;
}

/* color accent for held keys */
rect.held, rect.combo.held {
    fill: #fdd;
}

/* color accent for ghost (optional) keys */
rect.ghost, rect.combo.ghost {
    stroke-dasharray: 4, 4;
    stroke-width: 2;
}

text {
    text-anchor: middle;
    dominant-baseline: middle;
}

/* styling for layer labels */
text.label {
    font-weight: bold;
    text-anchor: start;
    stroke: white;
    stroke-width: 2;
    paint-order: stroke;
}

/* styling for combo tap, and key hold/shifted label text */
text.combo, text.hold, text.shifted {
    font-size: 11px;
}

text.hold {
    text-anchor: middle;
    dominant-baseline: auto;
}

text.shifted {
    text-anchor: middle;
    dominant-baseline: hanging;
}

/* styling for hold/shifted label text in combo box */
text.combo.hold, text.combo.shifted {
    font-size: 8px;
}

/* lighter symbol for transparent keys */
text.trans {
    fill: #7b7e81;
}

/* styling for combo dendrons */
path.combo {
    stroke-width: 1;
    stroke: gray;
    fill: none;
}

/* Start Tabler Icons Cleanup */
/* cannot use height/width with glyphs */
.icon-tabler > path {
    fill: inherit;
    stroke: inherit;
}
/* hide tabler's default box */
.icon-tabler > path[stroke="none"][fill="none"] {
    visibility: collapse;
}
/* End Tabler Icons Cleanup */
</style>
<g class="layer-APTMAK">
<text x="30.0" y="28.0" class="label">APTMAK</text>
<rect rx="4.0" ry="4.0" x="31.000000000000004" y="116.304" width="57.303999999999995" height="54.0" class="key"/>
<text x="59.652" y="143.304" class="tap">V</text>
<rect rx="4.0" ry="4.0" x="90.30399999999999" y="76.768" width="57.303999999999995" height="54.0" class="key"/>
<text x="118.95599999999999" y="103.768" class="tap">W</text>
<rect rx="4.0" ry="4.0" x="149.608" y="57.0" width="57.303999999999995" height="54.0" class="key"/>
<text x="178.26" y="84.0" class="tap">F</text>
<rect rx="4.0" ry="4.0" x="208.91200000000003" y="78.78399999999999" width="57.303999999999995" height="54.0" class="key"/>
<text x="237.56400000000002" y="105.78399999999999" class="tap">P</text>
<rect rx="4.0" ry="4.0" x="268.21599999999995" y="86.624" width="57.303999999999995" height="54.0" class="key"/>
<text x="296.86799999999994" y="113.624" class="tap">B</text>
<rect rx="4.0" ry="4.0" x="521.784" y="86.624" width="57.303999999999995" height="54.0" class="key"/>
<text x="550.436" y="113.624" class="tap">J</text>
<rect rx="4.0" ry="4.0" x="581.088" y="78.78399999999999" width="57.303999999999995" height="54.0" class="key"/>
<text x="609.74" y="105.78399999999999" class="tap">L</text>
<rect rx="4.0" ry="4.0" x="640.3919999999999" y="57.0" width="57.303999999999995" height="54.0" class="key"/>
<text x="669.044" y="84.0" class="tap">U</text>
<rect rx="4.0" ry="4.0" x="699.696" y="76.768" width="57.303999999999995" height="54.0" class="key"/>
<text x="728.3480000000001" y="103.768" class="tap">Y</text>
<rect rx="4.0" ry="4.0" x="759.0" y="116.304" width="57.303999999999995" height="54.0" class="key"/>
<text x="787.652" y="143.304" class="tap">&#x27;</text>
<text x="787.652" y="120.304" class="shifted">&quot;</text>
<rect rx="4.0" ry="4.0" x="31.000000000000004" y="172.304" width="57.303999999999995" height="54.0" class="key"/>
<text x="59.652" y="199.304" class="tap">R</text>
<use href="#mdi:apple-keyboard-control" xlink:href="#mdi:apple-keyboard-control" x="53.152" y="209.304" height="13" width="13.0" class="hold glyph mdi:apple-keyboard-control"/>
<rect rx="4.0" ry="4.0" x="90.30399999999999" y="132.768" width="57.303999999999995" height="54.0" class="key"/>
<text x="118.95599999999999" y="159.768" class="tap">S</text>
<use href="#mdi:apple-keyboard-option" xlink:href="#mdi:apple-keyboard-option" x="112.45599999999999" y="169.768" height="13" width="13.0" class="hold glyph mdi:apple-keyboard-option"/>
<rect rx="4.0" ry="4.0" x="149.608" y="113.0" width="57.303999999999995" height="54.0" class="key"/>
<text x="178.26" y="140.0" class="tap">T</text>
<use href="#mdi:apple-keyboard-shift" xlink:href="#mdi:apple-keyboard-shift" x="171.76" y="150.0" height="13" width="13.0" class="hold glyph mdi:apple-keyboard-shift"/>
<rect rx="4.0" ry="4.0" x="208.91200000000003" y="134.784" width="57.303999999999995" height="54.0" class="key"/>
<text x="237.56400000000002" y="161.784" class="tap">H</text>
<use href="#mdi:apple-keyboard-command" xlink:href="#mdi:apple-keyboard-command" x="231.06400000000002" y="171.784" height="13" width="13.0" class="hold glyph mdi:apple-keyboard-command"/>
<rect rx="4.0" ry="4.0" x="268.21599999999995" y="142.624" width="57.303999999999995" height="54.0" class="key"/>
<text x="296.86799999999994" y="169.624" class="tap">K</text>
<rect rx="4.0" ry="4.0" x="521.784" y="142.624" width="57.303999999999995" height="54.0" class="key"/>
<text x="550.436" y="169.624" class="tap">X</text>
<rect rx="4.0" ry="4.0" x="581.088" y="134.784" width="57.303999999999995" height="54.0" class="key"/>
<text x="609.74" y="161.784" class="tap">N</text>
<text x="609.74" y="184.784" class="hold">RGUI</text>
<rect rx="4.0" ry="4.0" x="640.3919999999999" y="113.0" width="57.303999999999995" height="54.0" class="key"/>
<text x="669.044" y="140.0" class="tap">A</text>
<use href="#mdi:apple-keyboard-shift" xlink:href="#mdi:apple-keyboard-shift" x="662.544" y="150.0" height="13" width="13.0" class="hold glyph mdi:apple-keyboard-shift"/>
<rect rx="4.0" ry="4.0" x="699.696" y="132.768" width="57.303999999999995" height="54.0" class="key"/>
<text x="728.3480000000001" y="159.768" class="tap">I</text>
<use href="#mdi:apple-keyboard-option" xlink:href="#mdi:apple-keyboard-option" x="721.8480000000001" y="169.768" height="13" width="13.0" class="hold glyph mdi:apple-keyboard-option"/>
<rect rx="4.0" ry="4.0" x="759.0" y="172.304" width="57.303999999999995" height="54.0" class="key"/>
<text x="787.652" y="199.304" class="tap">O</text>
<use href="#mdi:apple-keyboard-control" xlink:href="#mdi:apple-keyboard-control" x="781.152" y="209.304" height="13" width="13.0" class="hold glyph mdi:apple-keyboard-control"/>
<rect rx="4.0" ry="4.0" x="31.000000000000004" y="228.304" width="57.303999999999995" height="54.0" class="none key"/>
<rect rx="4.0" ry="4.0" x="90.30399999999999" y="188.768" width="57.303999999999995" height="54.0" class="key"/>
<text x="118.95599999999999" y="215.768" class="tap">C</text>
<rect rx="4.0" ry="4.0" x="149.608" y="169.0" width="57.303999999999995" height="54.0" class="key"/>
<text x="178.26" y="196.0" class="tap">G</text>
<rect rx="4.0" ry="4.0" x="208.91200000000003" y="190.84" width="57.303999999999995" height="54.0" class="key"/>
<text x="237.56400000000002" y="217.84" class="tap">D</text>
<rect rx="4.0" ry="4.0" x="268.21599999999995" y="198.624" width="57.303999999999995" height="54.0" class="none key"/>
<rect rx="4.0" ry="4.0" x="521.784" y="198.624" width="57.303999999999995" height="54.0" class="none key"/>
<rect rx="4.0" ry="4.0" x="581.088" y="190.84" width="57.303999999999995" height="54.0" class="key"/>
<text x="609.74" y="217.84" class="tap">M</text>
<rect rx="4.0" ry="4.0" x="640.3919999999999" y="169.0" width="57.303999999999995" height="54.0" class="key"/>
<text x="669.044" y="196.0" class="tap">,</text>
<text x="669.044" y="173.0" class="shifted">;</text>
<rect rx="4.0" ry="4.0" x="699.696" y="188.768" width="57.303999999999995" height="54.0" class="key"/>
<text x="728.3480000000001" y="215.768" class="tap">.</text>
<text x="728.3480000000001" y="192.768" class="shifted">:</text>
<rect rx="4.0" ry="4.0" x="759.0" y="228.304" width="57.303999999999995" height="54.0" class="none key"/>
<rect rx="4.0" ry="4.0" x="189.42400000000004" y="256.584" width="57.303999999999995" height="54.0" class="none key"/>
<g transform="rotate(15.0, 284.15695407686394, 292.0887530667371)">
<rect rx="4.0" ry="4.0" x="255.50495407686395" y="265.0887530667371" width="57.303999999999995" height="54.0" class="key"/>
<text x="284.15695407686394" y="292.0887530667371" class="tap">NAV</text>
<use href="#tabler:sticker" xlink:href="#tabler:sticker" x="277.65695407686394" y="302.0887530667371" height="13" width="13.0" class="hold glyph tabler:sticker"/>
</g>
<g transform="rotate(30.0, 350.59357474425406, 301.868)">
<rect rx="4.0" ry="4.0" x="323.59357474425406" y="258.404" width="54.0" height="86.928" class="key"/>
<use href="#mdi:keyboard-space" xlink:href="#mdi:keyboard-space" x="342.59357474425406" y="293.868" height="16" width="16.0" class="tap glyph mdi:keyboard-space"/>
<text x="350.59357474425406" y="341.332" class="hold">SYM</text>
<text x="350.59357474425406" y="262.404" class="shifted" style="font-size: 62%">&amp;dot_spc</text>
</g>
<g transform="rotate(-30.0, 493.40642525574594, 301.868)">
<rect rx="4.0" ry="4.0" x="466.40642525574594" y="258.404" width="54.0" height="86.928" class="key"/>
<use href="#mdi:apple-keyboard-shift" xlink:href="#mdi:apple-keyboard-shift" x="485.40642525574594" y="293.868" height="16" width="16.0" class="tap glyph mdi:apple-keyboard-shift"/>
<use href="#mdi:star-four-points" xlink:href="#mdi:star-four-points" x="486.90642525574594" y="328.332" height="13" width="13.0" class="hold glyph mdi:star-four-points"/>
<use href="#mdi:caps-lock" xlink:href="#mdi:caps-lock" x="487.40642525574594" y="262.404" height="12" width="12.0" class="shifted glyph mdi:caps-lock"/>
</g>
<g transform="rotate(-15.0, 563.0344648531952, 291.23361494171843)">
<rect rx="4.0" ry="4.0" x="534.3824648531952" y="264.23361494171843" width="57.303999999999995" height="54.0" class="key"/>
<text x="563.0344648531952" y="291.23361494171843" class="tap">E</text>
<text x="563.0344648531952" y="314.23361494171843" class="hold">NUM</text>
</g>
<rect rx="4.0" ry="4.0" x="600.5759999999999" y="256.584" width="57.303999999999995" height="54.0" class="none key"/>
<rect rx="4.0" ry="4.0" x="282.86799999999994" y="128.624" width="28.0" height="26.0" class="combo"/>
<text x="296.86799999999994" y="141.624" class="combo tap">X</text>
<rect rx="4.0" ry="4.0" x="536.436" y="128.624" width="28.0" height="26.0" class="combo"/>
<text x="550.436" y="141.624" class="combo tap">Z</text>
<path d="M148.608,55.5 h-25.652000000000015 a4.0,4.0 0 0 0 -4.0,4.0 v25.601333333333333" class="combo"/>
<path d="M148.608,55.5 h25.651999999999987 a4.0,4.0 0 0 1 4.0,4.0 v5.833333333333332" class="combo"/>
<rect rx="4.0" ry="4.0" x="134.608" y="42.5" width="28.0" height="26.0" class="combo"/>
<use href="#tabler:x" xlink:href="#tabler:x" x="140.608" y="47.5" height="16" width="16.0" class="combo tap glyph tabler:x"/>
<rect rx="4.0" ry="4.0" x="193.912" y="81.892" width="28.0" height="26.0" class="combo"/>
<text x="207.912" y="94.892" class="combo tap">LG(W)</text>
<rect rx="4.0" ry="4.0" x="134.608" y="136.88400000000001" width="28.0" height="26.0" class="combo"/>
<text x="148.608" y="149.88400000000001" class="combo tap" style="font-size: 83%">ESCAPE</text>
<rect rx="4.0" ry="4.0" x="193.912" y="137.892" width="28.0" height="26.0" class="combo"/>
<use href="#mdi:keyboard-tab" xlink:href="#mdi:keyboard-tab" x="199.912" y="142.892" height="16" width="16.0" class="combo tap glyph mdi:keyboard-tab"/>
<rect rx="4.0" ry="4.0" x="134.608" y="192.88400000000001" width="28.0" height="26.0" class="combo"/>
<use href="#mdi:content-copy" xlink:href="#mdi:content-copy" x="140.608" y="197.88400000000001" height="16" width="16.0" class="combo tap glyph mdi:content-copy"/>
<rect rx="4.0" ry="4.0" x="193.912" y="193.92000000000002" width="28.0" height="26.0" class="combo"/>
<text x="207.912" y="206.92000000000002" class="combo tap">LG(V)</text>
<path d="M178.26,209.86933333333334 l-39.63306542252885,3.942099047377745" class="combo"/>
<path d="M178.26,209.86933333333334 l39.71216446056948,5.337454902317641" class="combo"/>
<rect rx="4.0" ry="4.0" x="164.26" y="196.86933333333334" width="28.0" height="26.0" class="combo"/>
<text x="178.26" y="209.86933333333334" class="combo tap">LG(X)</text>
<rect rx="4.0" ry="4.0" x="75.304" y="166.536" width="28.0" height="26.0" class="combo"/>
<text x="89.304" y="179.536" class="combo tap">LG(Z)</text>
<rect rx="4.0" ry="4.0" x="253.216" y="152.704" width="28.0" height="26.0" class="combo"/>
<use href="#mdi:redo" xlink:href="#mdi:redo" x="259.216" y="157.704" height="16" width="16.0" class="combo tap glyph mdi:redo"/>
<rect rx="4.0" ry="4.0" x="684.696" y="136.88400000000001" width="28.0" height="26.0" class="combo"/>
<use href="#mdi:keyboard-return" xlink:href="#mdi:keyboard-return" x="690.696" y="141.88400000000001" height="16" width="16.0" class="combo tap glyph mdi:keyboard-return"/>
<rect rx="4.0" ry="4.0" x="625.392" y="81.892" width="28.0" height="26.0" class="combo"/>
<text x="639.392" y="94.892" class="combo tap">(</text>
<rect rx="4.0" ry="4.0" x="684.696" y="80.884" width="28.0" height="26.0" class="combo"/>
<text x="698.696" y="93.884" class="combo tap">)</text>
<rect rx="4.0" ry="4.0" x="625.392" y="193.92000000000002" width="28.0" height="26.0" class="combo"/>
<text x="639.392" y="215.92000000000002" class="combo hold">[</text>
<text x="639.392" y="197.92000000000002" class="combo shifted">{</text>
<rect rx="4.0" ry="4.0" x="684.696" y="192.88400000000001" width="28.0" height="26.0" class="combo"/>
<text x="698.696" y="214.88400000000001" class="combo hold">]</text>
<text x="698.696" y="196.88400000000001" class="combo shifted">}</text>
<path d="M422.826,222.586 l-343.8608402791173,-75.06587789601949" class="combo"/>
<path d="M422.826,222.586 l345.50886993639944,-75.08410646800837" class="combo"/>
<path d="M422.826,222.586 l-59.660829378709394,65.48347031206143" class="combo"/>
<path d="M422.826,222.586 l58.16840643401442,65.33975365253404" class="combo"/>
<rect rx="4.0" ry="4.0" x="408.826" y="209.586" width="28.0" height="26.0" class="combo"/>
<use href="#tabler:lock" xlink:href="#tabler:lock" x="414.826" y="214.586" height="16" width="16.0" class="combo tap glyph tabler:lock"/>
</g>
<g class="layer-NAV">
<text x="30.0" y="382.37495355387125" class="label">NAV</text>
<rect rx="4.0" ry="4.0" x="31.000000000000004" y="470.6789535538712" width="57.303999999999995" height="54.0" class="key"/>
<use href="#mdi:power-sleep" xlink:href="#mdi:power-sleep" x="51.652" y="489.6789535538712" height="16" width="16.0" class="tap glyph mdi:power-sleep"/>
<rect rx="4.0" ry="4.0" x="90.30399999999999" y="431.1429535538713" width="57.303999999999995" height="54.0" class="key"/>
<use href="#mdi:backspace" xlink:href="#mdi:backspace" x="110.95599999999999" y="450.1429535538713" height="16" width="16.0" class="tap glyph mdi:backspace"/>
<rect rx="4.0" ry="4.0" x="149.608" y="411.37495355387125" width="57.303999999999995" height="54.0" class="key"/>
<use href="#mdi:arrow-up-bold" xlink:href="#mdi:arrow-up-bold" x="170.26" y="430.37495355387125" height="16" width="16.0" class="tap glyph mdi:arrow-up-bold"/>
<rect rx="4.0" ry="4.0" x="208.91200000000003" y="433.15895355387124" width="57.303999999999995" height="54.0" class="key"/>
<use href="#mdi:backspace-reverse-outline" xlink:href="#mdi:backspace-reverse-outline" x="229.56400000000002" y="452.15895355387124" height="16" width="16.0" class="tap glyph mdi:backspace-reverse-outline"/>
<rect rx="4.0" ry="4.0" x="268.21599999999995" y="440.9989535538713" width="57.303999999999995" height="54.0" class="key"/>
<use href="#mdi:pan-up" xlink:href="#mdi:pan-up" x="288.86799999999994" y="459.9989535538713" height="16" width="16.0" class="tap glyph mdi:pan-up"/>
<rect rx="4.0" ry="4.0" x="521.784" y="440.9989535538713" width="57.303999999999995" height="54.0" class="none key"/>
<rect rx="4.0" ry="4.0" x="581.088" y="433.15895355387124" width="57.303999999999995" height="54.0" class="none key"/>
<rect rx="4.0" ry="4.0" x="640.3919999999999" y="411.37495355387125" width="57.303999999999995" height="54.0" class="none key"/>
<rect rx="4.0" ry="4.0" x="699.696" y="431.1429535538713" width="57.303999999999995" height="54.0" class="none key"/>
<rect rx="4.0" ry="4.0" x="759.0" y="470.6789535538712" width="57.303999999999995" height="54.0" class="none key"/>
<rect rx="4.0" ry="4.0" x="31.000000000000004" y="526.6789535538712" width="57.303999999999995" height="54.0" class="key"/>
<text x="59.652" y="553.6789535538712" class="tap" style="font-size: 60%">&amp;screenshot</text>
<rect rx="4.0" ry="4.0" x="90.30399999999999" y="487.1429535538713" width="57.303999999999995" height="54.0" class="key"/>
<use href="#mdi:arrow-left-bold" xlink:href="#mdi:arrow-left-bold" x="110.95599999999999" y="506.1429535538713" height="16" width="16.0" class="tap glyph mdi:arrow-left-bold"/>
<rect rx="4.0" ry="4.0" x="149.608" y="467.37495355387125" width="57.303999999999995" height="54.0" class="key"/>
<use href="#mdi:arrow-down-bold" xlink:href="#mdi:arrow-down-bold" x="170.26" y="486.37495355387125" height="16" width="16.0" class="tap glyph mdi:arrow-down-bold"/>
<rect rx="4.0" ry="4.0" x="208.91200000000003" y="489.15895355387124" width="57.303999999999995" height="54.0" class="key"/>
<use href="#mdi:arrow-right-bold" xlink:href="#mdi:arrow-right-bold" x="229.56400000000002" y="508.15895355387124" height="16" width="16.0" class="tap glyph mdi:arrow-right-bold"/>
<rect rx="4.0" ry="4.0" x="268.21599999999995" y="496.9989535538713" width="57.303999999999995" height="54.0" class="key"/>
<use href="#mdi:pan-down" xlink:href="#mdi:pan-down" x="288.86799999999994" y="515.9989535538713" height="16" width="16.0" class="tap glyph mdi:pan-down"/>
<rect rx="4.0" ry="4.0" x="521.784" y="496.9989535538713" width="57.303999999999995" height="54.0" class="none key"/>
<rect rx="4.0" ry="4.0" x="581.088" y="489.15895355387124" width="57.303999999999995" height="54.0" class="key"/>
<use href="#mdi:apple-keyboard-command" xlink:href="#mdi:apple-keyboard-command" x="601.74" y="508.15895355387124" height="16" width="16.0" class="tap glyph mdi:apple-keyboard-command"/>
<use href="#tabler:sticker" xlink:href="#tabler:sticker" x="603.24" y="526.1589535538712" height="13" width="13.0" class="hold glyph tabler:sticker"/>
<rect rx="4.0" ry="4.0" x="640.3919999999999" y="467.37495355387125" width="57.303999999999995" height="54.0" class="key"/>
<use href="#mdi:apple-keyboard-shift" xlink:href="#mdi:apple-keyboard-shift" x="661.044" y="486.37495355387125" height="16" width="16.0" class="tap glyph mdi:apple-keyboard-shift"/>
<use href="#tabler:sticker" xlink:href="#tabler:sticker" x="662.544" y="504.37495355387125" height="13" width="13.0" class="hold glyph tabler:sticker"/>
<rect rx="4.0" ry="4.0" x="699.696" y="487.1429535538713" width="57.303999999999995" height="54.0" class="key"/>
<use href="#mdi:apple-keyboard-option" xlink:href="#mdi:apple-keyboard-option" x="720.3480000000001" y="506.1429535538713" height="16" width="16.0" class="tap glyph mdi:apple-keyboard-option"/>
<use href="#tabler:sticker" xlink:href="#tabler:sticker" x="721.8480000000001" y="524.1429535538713" height="13" width="13.0" class="hold glyph tabler:sticker"/>
<rect rx="4.0" ry="4.0" x="759.0" y="526.6789535538712" width="57.303999999999995" height="54.0" class="key"/>
<use href="#mdi:apple-keyboard-control" xlink:href="#mdi:apple-keyboard-control" x="779.652" y="545.6789535538712" height="16" width="16.0" class="tap glyph mdi:apple-keyboard-control"/>
<use href="#tabler:sticker" xlink:href="#tabler:sticker" x="781.152" y="563.6789535538712" height="13" width="13.0" class="hold glyph tabler:sticker"/>
<rect rx="4.0" ry="4.0" x="31.000000000000004" y="582.6789535538712" width="57.303999999999995" height="54.0" class="none key"/>
<rect rx="4.0" ry="4.0" x="90.30399999999999" y="543.1429535538713" width="57.303999999999995" height="54.0" class="key"/>
<use href="#tabler:arrow-left-circle" xlink:href="#tabler:arrow-left-circle" x="110.95599999999999" y="562.1429535538713" height="16" width="16.0" class="tap glyph tabler:arrow-left-circle"/>
<rect rx="4.0" ry="4.0" x="149.608" y="523.3749535538713" width="57.303999999999995" height="54.0" class="key"/>
<text x="178.26" y="550.3749535538713" class="tap" style="font-size: 62%">&amp;swapper</text>
<rect rx="4.0" ry="4.0" x="208.91200000000003" y="545.2149535538713" width="57.303999999999995" height="54.0" class="key"/>
<text x="237.56400000000002" y="572.2149535538713" class="tap" style="font-size: 60%">LC(RIGHT)</text>
<rect rx="4.0" ry="4.0" x="268.21599999999995" y="552.9989535538713" width="57.303999999999995" height="54.0" class="none key"/>
<rect rx="4.0" ry="4.0" x="521.784" y="552.9989535538713" width="57.303999999999995" height="54.0" class="none key"/>
<rect rx="4.0" ry="4.0" x="581.088" y="545.2149535538713" width="57.303999999999995" height="54.0" class="none key"/>
<rect rx="4.0" ry="4.0" x="640.3919999999999" y="523.3749535538713" width="57.303999999999995" height="54.0" class="none key"/>
<rect rx="4.0" ry="4.0" x="699.696" y="543.1429535538713" width="57.303999999999995" height="54.0" class="none key"/>
<rect rx="4.0" ry="4.0" x="759.0" y="582.6789535538712" width="57.303999999999995" height="54.0" class="none key"/>
<rect rx="4.0" ry="4.0" x="189.42400000000004" y="610.9589535538712" width="57.303999999999995" height="54.0" class="none key"/>
<g transform="rotate(15.0, 284.15695407686394, 646.4637066206084)">
<rect rx="4.0" ry="4.0" x="255.50495407686395" y="619.4637066206084" width="57.303999999999995" height="54.0" class="held key"/>
</g>
<g transform="rotate(30.0, 350.59357474425406, 656.2429535538713)">
<rect rx="4.0" ry="4.0" x="323.59357474425406" y="612.7789535538714" width="54.0" height="86.928" class="none key"/>
</g>
<g transform="rotate(-30.0, 493.40642525574594, 656.2429535538713)">
<rect rx="4.0" ry="4.0" x="466.40642525574594" y="612.7789535538714" width="54.0" height="86.928" class="none key"/>
</g>
<g transform="rotate(-15.0, 563.0344648531952, 645.6085684955897)">
<rect rx="4.0" ry="4.0" x="534.3824648531952" y="618.6085684955897" width="57.303999999999995" height="54.0" class="key"/>
<text x="563.0344648531952" y="645.6085684955897" class="tap">NUM</text>
</g>
<rect rx="4.0" ry="4.0" x="600.5759999999999" y="610.9589535538712" width="57.303999999999995" height="54.0" class="none key"/>
</g>
<g class="layer-SYM">
<text x="30.0" y="736.7499071077425" class="label">SYM</text>
<rect rx="4.0" ry="4.0" x="31.000000000000004" y="825.0539071077425" width="57.303999999999995" height="54.0" class="key"/>
<text x="59.652" y="852.0539071077425" class="tap" style="font-size: 60%">RA(LS(SEMI))</text>
<rect rx="4.0" ry="4.0" x="90.30399999999999" y="785.5179071077425" width="57.303999999999995" height="54.0" class="key"/>
<text x="118.95599999999999" y="812.5179071077425" class="tap">@</text>
<rect rx="4.0" ry="4.0" x="149.608" y="765.7499071077425" width="57.303999999999995" height="54.0" class="key"/>
<text x="178.26" y="792.7499071077425" class="tap">#</text>
<rect rx="4.0" ry="4.0" x="208.91200000000003" y="787.5339071077425" width="57.303999999999995" height="54.0" class="key"/>
<text x="237.56400000000002" y="814.5339071077425" class="tap">$/€</text>
<rect rx="4.0" ry="4.0" x="268.21599999999995" y="795.3739071077425" width="57.303999999999995" height="54.0" class="key"/>
<text x="296.86799999999994" y="822.3739071077425" class="tap">%</text>
<rect rx="4.0" ry="4.0" x="521.784" y="795.3739071077425" width="57.303999999999995" height="54.0" class="key"/>
<text x="550.436" y="822.3739071077425" class="tap">^</text>
<rect rx="4.0" ry="4.0" x="581.088" y="787.5339071077425" width="57.303999999999995" height="54.0" class="key"/>
<text x="609.74" y="814.5339071077425" class="tap">+</text>
<rect rx="4.0" ry="4.0" x="640.3919999999999" y="765.7499071077425" width="57.303999999999995" height="54.0" class="key"/>
<text x="669.044" y="792.7499071077425" class="tap">*</text>
<rect rx="4.0" ry="4.0" x="699.696" y="785.5179071077425" width="57.303999999999995" height="54.0" class="key"/>
<text x="728.3480000000001" y="812.5179071077425" class="tap">&amp;</text>
<rect rx="4.0" ry="4.0" x="759.0" y="825.0539071077425" width="57.303999999999995" height="54.0" class="none key"/>
<rect rx="4.0" ry="4.0" x="31.000000000000004" y="881.0539071077425" width="57.303999999999995" height="54.0" class="key"/>
<text x="59.652" y="908.0539071077425" class="tap">?</text>
<rect rx="4.0" ry="4.0" x="90.30399999999999" y="841.5179071077425" width="57.303999999999995" height="54.0" class="key"/>
<text x="118.95599999999999" y="868.5179071077425" class="tap">`</text>
<rect rx="4.0" ry="4.0" x="149.608" y="821.7499071077425" width="57.303999999999995" height="54.0" class="key"/>
<text x="178.26" y="848.7499071077425" class="tap">\</text>
<rect rx="4.0" ry="4.0" x="208.91200000000003" y="843.5339071077425" width="57.303999999999995" height="54.0" class="key"/>
<text x="237.56400000000002" y="870.5339071077425" class="tap">=</text>
<rect rx="4.0" ry="4.0" x="268.21599999999995" y="851.3739071077425" width="57.303999999999995" height="54.0" class="none key"/>
<rect rx="4.0" ry="4.0" x="521.784" y="851.3739071077425" width="57.303999999999995" height="54.0" class="key"/>
<text x="550.436" y="878.3739071077425" class="tap">_</text>
<rect rx="4.0" ry="4.0" x="581.088" y="843.5339071077425" width="57.303999999999995" height="54.0" class="key"/>
<text x="609.74" y="870.5339071077425" class="tap">-</text>
<rect rx="4.0" ry="4.0" x="640.3919999999999" y="821.7499071077425" width="57.303999999999995" height="54.0" class="key"/>
<text x="669.044" y="848.7499071077425" class="tap">/</text>
<rect rx="4.0" ry="4.0" x="699.696" y="841.5179071077425" width="57.303999999999995" height="54.0" class="key"/>
<text x="728.3480000000001" y="868.5179071077425" class="tap">|</text>
<rect rx="4.0" ry="4.0" x="759.0" y="881.0539071077425" width="57.303999999999995" height="54.0" class="key"/>
<text x="787.652" y="908.0539071077425" class="tap">!</text>
<rect rx="4.0" ry="4.0" x="31.000000000000004" y="937.0539071077425" width="57.303999999999995" height="54.0" class="none key"/>
<rect rx="4.0" ry="4.0" x="90.30399999999999" y="897.5179071077425" width="57.303999999999995" height="54.0" class="none key"/>
<rect rx="4.0" ry="4.0" x="149.608" y="877.7499071077425" width="57.303999999999995" height="54.0" class="key"/>
<text x="178.26" y="904.7499071077425" class="tap">`</text>
<rect rx="4.0" ry="4.0" x="208.91200000000003" y="899.5899071077425" width="57.303999999999995" height="54.0" class="key"/>
<text x="237.56400000000002" y="926.5899071077425" class="tap">RA(E)</text>
<rect rx="4.0" ry="4.0" x="268.21599999999995" y="907.3739071077425" width="57.303999999999995" height="54.0" class="none key"/>
<rect rx="4.0" ry="4.0" x="521.784" y="907.3739071077425" width="57.303999999999995" height="54.0" class="none key"/>
<rect rx="4.0" ry="4.0" x="581.088" y="899.5899071077425" width="57.303999999999995" height="54.0" class="key"/>
<text x="609.74" y="926.5899071077425" class="tap">&lt;</text>
<rect rx="4.0" ry="4.0" x="640.3919999999999" y="877.7499071077425" width="57.303999999999995" height="54.0" class="key"/>
<text x="669.044" y="904.7499071077425" class="tap">&gt;</text>
<rect rx="4.0" ry="4.0" x="699.696" y="897.5179071077425" width="57.303999999999995" height="54.0" class="none key"/>
<rect rx="4.0" ry="4.0" x="759.0" y="937.0539071077425" width="57.303999999999995" height="54.0" class="none key"/>
<rect rx="4.0" ry="4.0" x="189.42400000000004" y="965.3339071077426" width="57.303999999999995" height="54.0" class="none key"/>
<g transform="rotate(15.0, 284.15695407686394, 1000.8386601744796)">
<rect rx="4.0" ry="4.0" x="255.50495407686395" y="973.8386601744796" width="57.303999999999995" height="54.0" class="none key"/>
</g>
<g transform="rotate(30.0, 350.59357474425406, 1010.6179071077424)">
<rect rx="4.0" ry="4.0" x="323.59357474425406" y="967.1539071077425" width="54.0" height="86.928" class="held key"/>
</g>
<g transform="rotate(-30.0, 493.40642525574594, 1010.6179071077424)">
<rect rx="4.0" ry="4.0" x="466.40642525574594" y="967.1539071077425" width="54.0" height="86.928" class="none key"/>
</g>
<g transform="rotate(-15.0, 563.0344648531952, 999.9835220494609)">
<rect rx="4.0" ry="4.0" x="534.3824648531952" y="972.9835220494609" width="57.303999999999995" height="54.0" class="none key"/>
</g>
<rect rx="4.0" ry="4.0" x="600.5759999999999" y="965.3339071077426" width="57.303999999999995" height="54.0" class="none key"/>
<rect rx="4.0" ry="4.0" x="625.392" y="790.6419071077426" width="28.0" height="26.0" class="combo"/>
<text x="639.392" y="803.6419071077426" class="combo tap">(</text>
<rect rx="4.0" ry="4.0" x="684.696" y="789.6339071077425" width="28.0" height="26.0" class="combo"/>
<text x="698.696" y="802.6339071077425" class="combo tap">)</text>
<rect rx="4.0" ry="4.0" x="625.392" y="902.6699071077426" width="28.0" height="26.0" class="combo"/>
<text x="639.392" y="924.6699071077426" class="combo hold">[</text>
<text x="639.392" y="906.6699071077426" class="combo shifted">{</text>
<rect rx="4.0" ry="4.0" x="684.696" y="901.6339071077425" width="28.0" height="26.0" class="combo"/>
<text x="698.696" y="923.6339071077425" class="combo hold">]</text>
<text x="698.696" y="905.6339071077425" class="combo shifted">}</text>
</g>
<g class="layer-NUM">
<text x="30.0" y="1091.1248606616136" class="label">NUM</text>
<rect rx="4.0" ry="4.0" x="31.000000000000004" y="1179.4288606616137" width="57.303999999999995" height="54.0" class="key"/>
<text x="59.652" y="1206.4288606616137" class="tap">F12</text>
<rect rx="4.0" ry="4.0" x="90.30399999999999" y="1139.8928606616137" width="57.303999999999995" height="54.0" class="key"/>
<text x="118.95599999999999" y="1166.8928606616137" class="tap">F7</text>
<rect rx="4.0" ry="4.0" x="149.608" y="1120.1248606616136" width="57.303999999999995" height="54.0" class="key"/>
<text x="178.26" y="1147.1248606616136" class="tap">F8</text>
<rect rx="4.0" ry="4.0" x="208.91200000000003" y="1141.9088606616137" width="57.303999999999995" height="54.0" class="key"/>
<text x="237.56400000000002" y="1168.9088606616137" class="tap">F9</text>
<rect rx="4.0" ry="4.0" x="268.21599999999995" y="1149.7488606616137" width="57.303999999999995" height="54.0" class="key"/>
<text x="296.86799999999994" y="1176.7488606616137" class="tap">F10</text>
<rect rx="4.0" ry="4.0" x="521.784" y="1149.7488606616137" width="57.303999999999995" height="54.0" class="key"/>
<text x="550.436" y="1176.7488606616137" class="tap">+</text>
<rect rx="4.0" ry="4.0" x="581.088" y="1141.9088606616137" width="57.303999999999995" height="54.0" class="key"/>
<text x="609.74" y="1168.9088606616137" class="tap">7</text>
<rect rx="4.0" ry="4.0" x="640.3919999999999" y="1120.1248606616136" width="57.303999999999995" height="54.0" class="key"/>
<text x="669.044" y="1147.1248606616136" class="tap">8</text>
<rect rx="4.0" ry="4.0" x="699.696" y="1139.8928606616137" width="57.303999999999995" height="54.0" class="key"/>
<text x="728.3480000000001" y="1166.8928606616137" class="tap">9</text>
<rect rx="4.0" ry="4.0" x="759.0" y="1179.4288606616137" width="57.303999999999995" height="54.0" class="key"/>
<text x="787.652" y="1206.4288606616137" class="tap">*</text>
<rect rx="4.0" ry="4.0" x="31.000000000000004" y="1235.4288606616137" width="57.303999999999995" height="54.0" class="key"/>
<text x="59.652" y="1262.4288606616137" class="tap">F13</text>
<rect rx="4.0" ry="4.0" x="90.30399999999999" y="1195.8928606616137" width="57.303999999999995" height="54.0" class="key"/>
<text x="118.95599999999999" y="1222.8928606616137" class="tap">F4</text>
<rect rx="4.0" ry="4.0" x="149.608" y="1176.1248606616136" width="57.303999999999995" height="54.0" class="key"/>
<text x="178.26" y="1203.1248606616136" class="tap">F5</text>
<rect rx="4.0" ry="4.0" x="208.91200000000003" y="1197.9088606616137" width="57.303999999999995" height="54.0" class="key"/>
<text x="237.56400000000002" y="1224.9088606616137" class="tap">F6</text>
<rect rx="4.0" ry="4.0" x="268.21599999999995" y="1205.7488606616137" width="57.303999999999995" height="54.0" class="key"/>
<text x="296.86799999999994" y="1232.7488606616137" class="tap">F11</text>
<rect rx="4.0" ry="4.0" x="521.784" y="1205.7488606616137" width="57.303999999999995" height="54.0" class="key"/>
<text x="550.436" y="1232.7488606616137" class="tap">-</text>
<rect rx="4.0" ry="4.0" x="581.088" y="1197.9088606616137" width="57.303999999999995" height="54.0" class="key"/>
<text x="609.74" y="1224.9088606616137" class="tap">4</text>
<rect rx="4.0" ry="4.0" x="640.3919999999999" y="1176.1248606616136" width="57.303999999999995" height="54.0" class="key"/>
<text x="669.044" y="1203.1248606616136" class="tap">5</text>
<rect rx="4.0" ry="4.0" x="699.696" y="1195.8928606616137" width="57.303999999999995" height="54.0" class="key"/>
<text x="728.3480000000001" y="1222.8928606616137" class="tap">6</text>
<rect rx="4.0" ry="4.0" x="759.0" y="1235.4288606616137" width="57.303999999999995" height="54.0" class="key"/>
<text x="787.652" y="1262.4288606616137" class="tap">/</text>
<rect rx="4.0" ry="4.0" x="31.000000000000004" y="1291.4288606616137" width="57.303999999999995" height="54.0" class="none key"/>
<rect rx="4.0" ry="4.0" x="90.30399999999999" y="1251.8928606616137" width="57.303999999999995" height="54.0" class="key"/>
<text x="118.95599999999999" y="1278.8928606616137" class="tap">F1</text>
<rect rx="4.0" ry="4.0" x="149.608" y="1232.1248606616136" width="57.303999999999995" height="54.0" class="key"/>
<text x="178.26" y="1259.1248606616136" class="tap">F2</text>
<rect rx="4.0" ry="4.0" x="208.91200000000003" y="1253.9648606616136" width="57.303999999999995" height="54.0" class="key"/>
<text x="237.56400000000002" y="1280.9648606616136" class="tap">F3</text>
<rect rx="4.0" ry="4.0" x="268.21599999999995" y="1261.7488606616137" width="57.303999999999995" height="54.0" class="none key"/>
<rect rx="4.0" ry="4.0" x="521.784" y="1261.7488606616137" width="57.303999999999995" height="54.0" class="none key"/>
<rect rx="4.0" ry="4.0" x="581.088" y="1253.9648606616136" width="57.303999999999995" height="54.0" class="key"/>
<text x="609.74" y="1280.9648606616136" class="tap">1</text>
<rect rx="4.0" ry="4.0" x="640.3919999999999" y="1232.1248606616136" width="57.303999999999995" height="54.0" class="key"/>
<text x="669.044" y="1259.1248606616136" class="tap">2</text>
<rect rx="4.0" ry="4.0" x="699.696" y="1251.8928606616137" width="57.303999999999995" height="54.0" class="key"/>
<text x="728.3480000000001" y="1278.8928606616137" class="tap">3</text>
<rect rx="4.0" ry="4.0" x="759.0" y="1291.4288606616137" width="57.303999999999995" height="54.0" class="none key"/>
<rect rx="4.0" ry="4.0" x="189.42400000000004" y="1319.7088606616137" width="57.303999999999995" height="54.0" class="none key"/>
<g transform="rotate(15.0, 284.15695407686394, 1355.2136137283508)">
<rect rx="4.0" ry="4.0" x="255.50495407686395" y="1328.2136137283508" width="57.303999999999995" height="54.0" class="held key"/>
<text x="284.15695407686394" y="1355.2136137283508" class="held tap">0</text>
</g>
<g transform="rotate(30.0, 350.59357474425406, 1364.9928606616136)">
<rect rx="4.0" ry="4.0" x="323.59357474425406" y="1321.5288606616136" width="54.0" height="86.928" class="key"/>
<text x="350.59357474425406" y="1364.9928606616136" class="tap">.</text>
</g>
<g transform="rotate(-30.0, 493.40642525574594, 1364.9928606616136)">
<rect rx="4.0" ry="4.0" x="466.40642525574594" y="1321.5288606616136" width="54.0" height="86.928" class="none key"/>
</g>
<g transform="rotate(-15.0, 563.0344648531952, 1354.358475603332)">
<rect rx="4.0" ry="4.0" x="534.3824648531952" y="1327.358475603332" width="57.303999999999995" height="54.0" class="held key"/>
</g>
<rect rx="4.0" ry="4.0" x="600.5759999999999" y="1319.7088606616137" width="57.303999999999995" height="54.0" class="none key"/>
<rect rx="4.0" ry="4.0" x="625.392" y="1145.0168606616137" width="28.0" height="26.0" class="combo"/>
<text x="639.392" y="1158.0168606616137" class="combo tap">(</text>
<rect rx="4.0" ry="4.0" x="684.696" y="1144.0088606616137" width="28.0" height="26.0" class="combo"/>
<text x="698.696" y="1157.0088606616137" class="combo tap">)</text>
<rect rx="4.0" ry="4.0" x="625.392" y="1257.0448606616137" width="28.0" height="26.0" class="combo"/>
<text x="639.392" y="1279.0448606616137" class="combo hold">[</text>
<text x="639.392" y="1261.0448606616137" class="combo shifted">{</text>
<rect rx="4.0" ry="4.0" x="684.696" y="1256.0088606616137" width="28.0" height="26.0" class="combo"/>
<text x="698.696" y="1278.0088606616137" class="combo hold">]</text>
<text x="698.696" y="1260.0088606616137" class="combo shifted">}</text>
</g>
<g class="layer-ADJ">
<text x="30.0" y="1445.499814215485" class="label">ADJ</text>
<rect rx="4.0" ry="4.0" x="31.000000000000004" y="1533.803814215485" width="57.303999999999995" height="54.0" class="none key"/>
<rect rx="4.0" ry="4.0" x="90.30399999999999" y="1494.267814215485" width="57.303999999999995" height="54.0" class="none key"/>
<rect rx="4.0" ry="4.0" x="149.608" y="1474.499814215485" width="57.303999999999995" height="54.0" class="key"/>
<use href="#mdi:apple" xlink:href="#mdi:apple" x="170.26" y="1493.499814215485" height="16" width="16.0" class="tap glyph mdi:apple"/>
<rect rx="4.0" ry="4.0" x="208.91200000000003" y="1496.283814215485" width="57.303999999999995" height="54.0" class="key"/>
<use href="#mdi:apple" xlink:href="#mdi:apple" x="229.56400000000002" y="1515.283814215485" height="16" width="16.0" class="tap glyph mdi:apple"/>
<rect rx="4.0" ry="4.0" x="268.21599999999995" y="1504.123814215485" width="57.303999999999995" height="54.0" class="key"/>
<use href="#mdi:progress-download" xlink:href="#mdi:progress-download" x="288.86799999999994" y="1523.123814215485" height="16" width="16.0" class="tap glyph mdi:progress-download"/>
<rect rx="4.0" ry="4.0" x="521.784" y="1504.123814215485" width="57.303999999999995" height="54.0" class="key"/>
<use href="#mdi:progress-download" xlink:href="#mdi:progress-download" x="542.436" y="1523.123814215485" height="16" width="16.0" class="tap glyph mdi:progress-download"/>
<rect rx="4.0" ry="4.0" x="581.088" y="1496.283814215485" width="57.303999999999995" height="54.0" class="key"/>
<use href="#mdi:play-pause" xlink:href="#mdi:play-pause" x="601.74" y="1515.283814215485" height="16" width="16.0" class="tap glyph mdi:play-pause"/>
<rect rx="4.0" ry="4.0" x="640.3919999999999" y="1474.499814215485" width="57.303999999999995" height="54.0" class="key"/>
<use href="#mdi:skip-next" xlink:href="#mdi:skip-next" x="661.044" y="1493.499814215485" height="16" width="16.0" class="tap glyph mdi:skip-next"/>
<rect rx="4.0" ry="4.0" x="699.696" y="1494.267814215485" width="57.303999999999995" height="54.0" class="key"/>
<use href="#mdi:skip-previous" xlink:href="#mdi:skip-previous" x="720.3480000000001" y="1513.267814215485" height="16" width="16.0" class="tap glyph mdi:skip-previous"/>
<rect rx="4.0" ry="4.0" x="759.0" y="1533.803814215485" width="57.303999999999995" height="54.0" class="none key"/>
<rect rx="4.0" ry="4.0" x="31.000000000000004" y="1589.803814215485" width="57.303999999999995" height="54.0" class="key"/>
<use href="#mdi:bluetooth-off" xlink:href="#mdi:bluetooth-off" x="51.652" y="1608.803814215485" height="16" width="16.0" class="tap glyph mdi:bluetooth-off"/>
<rect rx="4.0" ry="4.0" x="90.30399999999999" y="1550.267814215485" width="57.303999999999995" height="54.0" class="key"/>
<use href="#mdi:bluetooth-connect" xlink:href="#mdi:bluetooth-connect" x="110.95599999999999" y="1569.267814215485" height="16" width="16.0" class="tap glyph mdi:bluetooth-connect"/>
<text x="118.95599999999999" y="1600.267814215485" class="hold">3</text>
<rect rx="4.0" ry="4.0" x="149.608" y="1530.499814215485" width="57.303999999999995" height="54.0" class="key"/>
<use href="#mdi:microsoft-windows" xlink:href="#mdi:microsoft-windows" x="170.26" y="1549.499814215485" height="16" width="16.0" class="tap glyph mdi:microsoft-windows"/>
<text x="178.26" y="1580.499814215485" class="hold">2</text>
<rect rx="4.0" ry="4.0" x="208.91200000000003" y="1552.283814215485" width="57.303999999999995" height="54.0" class="key"/>
<use href="#mdi:apple" xlink:href="#mdi:apple" x="229.56400000000002" y="1571.283814215485" height="16" width="16.0" class="tap glyph mdi:apple"/>
<text x="237.56400000000002" y="1602.283814215485" class="hold">1</text>
<rect rx="4.0" ry="4.0" x="268.21599999999995" y="1560.123814215485" width="57.303999999999995" height="54.0" class="key"/>
<use href="#mdi:backup-restore" xlink:href="#mdi:backup-restore" x="288.86799999999994" y="1579.123814215485" height="16" width="16.0" class="tap glyph mdi:backup-restore"/>
<rect rx="4.0" ry="4.0" x="521.784" y="1560.123814215485" width="57.303999999999995" height="54.0" class="key"/>
<use href="#mdi:backup-restore" xlink:href="#mdi:backup-restore" x="542.436" y="1579.123814215485" height="16" width="16.0" class="tap glyph mdi:backup-restore"/>
<rect rx="4.0" ry="4.0" x="581.088" y="1552.283814215485" width="57.303999999999995" height="54.0" class="key"/>
<use href="#mdi:volume-low" xlink:href="#mdi:volume-low" x="601.74" y="1571.283814215485" height="16" width="16.0" class="tap glyph mdi:volume-low"/>
<rect rx="4.0" ry="4.0" x="640.3919999999999" y="1530.499814215485" width="57.303999999999995" height="54.0" class="key"/>
<use href="#mdi:volume-high" xlink:href="#mdi:volume-high" x="661.044" y="1549.499814215485" height="16" width="16.0" class="tap glyph mdi:volume-high"/>
<rect rx="4.0" ry="4.0" x="699.696" y="1550.267814215485" width="57.303999999999995" height="54.0" class="key"/>
<use href="#mdi:volume-off" xlink:href="#mdi:volume-off" x="720.3480000000001" y="1569.267814215485" height="16" width="16.0" class="tap glyph mdi:volume-off"/>
<rect rx="4.0" ry="4.0" x="759.0" y="1589.803814215485" width="57.303999999999995" height="54.0" class="none key"/>
<rect rx="4.0" ry="4.0" x="31.000000000000004" y="1645.803814215485" width="57.303999999999995" height="54.0" class="none key"/>
<rect rx="4.0" ry="4.0" x="90.30399999999999" y="1606.267814215485" width="57.303999999999995" height="54.0" class="key"/>
<use href="#mdi:bluetooth-connect" xlink:href="#mdi:bluetooth-connect" x="110.95599999999999" y="1625.267814215485" height="16" width="16.0" class="tap glyph mdi:bluetooth-connect"/>
<text x="118.95599999999999" y="1656.267814215485" class="hold">5</text>
<rect rx="4.0" ry="4.0" x="149.608" y="1586.499814215485" width="57.303999999999995" height="54.0" class="key"/>
<use href="#mdi:bluetooth-connect" xlink:href="#mdi:bluetooth-connect" x="170.26" y="1605.499814215485" height="16" width="16.0" class="tap glyph mdi:bluetooth-connect"/>
<text x="178.26" y="1636.499814215485" class="hold">4</text>
<rect rx="4.0" ry="4.0" x="208.91200000000003" y="1608.339814215485" width="57.303999999999995" height="54.0" class="key"/>
<use href="#mdi:toggle-switch-outline" xlink:href="#mdi:toggle-switch-outline" x="229.56400000000002" y="1627.339814215485" height="16" width="16.0" class="tap glyph mdi:toggle-switch-outline"/>
<use href="#mdi:bluetooth" xlink:href="#mdi:bluetooth" x="231.06400000000002" y="1645.339814215485" height="13" width="13.0" class="hold glyph mdi:bluetooth"/>
<use href="#mdi:usb" xlink:href="#mdi:usb" x="231.56400000000002" y="1612.339814215485" height="12" width="12.0" class="shifted glyph mdi:usb"/>
<rect rx="4.0" ry="4.0" x="268.21599999999995" y="1616.123814215485" width="57.303999999999995" height="54.0" class="none key"/>
<rect rx="4.0" ry="4.0" x="521.784" y="1616.123814215485" width="57.303999999999995" height="54.0" class="none key"/>
<rect rx="4.0" ry="4.0" x="581.088" y="1608.339814215485" width="57.303999999999995" height="54.0" class="key"/>
<use href="#mdi:brightness-7" xlink:href="#mdi:brightness-7" x="601.74" y="1627.339814215485" height="16" width="16.0" class="tap glyph mdi:brightness-7"/>
<rect rx="4.0" ry="4.0" x="640.3919999999999" y="1586.499814215485" width="57.303999999999995" height="54.0" class="key"/>
<use href="#mdi:brightness-5" xlink:href="#mdi:brightness-5" x="661.044" y="1605.499814215485" height="16" width="16.0" class="tap glyph mdi:brightness-5"/>
<rect rx="4.0" ry="4.0" x="699.696" y="1606.267814215485" width="57.303999999999995" height="54.0" class="none key"/>
<rect rx="4.0" ry="4.0" x="759.0" y="1645.803814215485" width="57.303999999999995" height="54.0" class="none key"/>
<rect rx="4.0" ry="4.0" x="189.42400000000004" y="1674.083814215485" width="57.303999999999995" height="54.0" class="none key"/>
<g transform="rotate(15.0, 284.15695407686394, 1709.5885672822221)">
<rect rx="4.0" ry="4.0" x="255.50495407686395" y="1682.5885672822221" width="57.303999999999995" height="54.0" class="held key"/>
</g>
<g transform="rotate(30.0, 350.59357474425406, 1719.367814215485)">
<rect rx="4.0" ry="4.0" x="323.59357474425406" y="1675.903814215485" width="54.0" height="86.928" class="none key"/>
</g>
<g transform="rotate(-30.0, 493.40642525574594, 1719.367814215485)">
<rect rx="4.0" ry="4.0" x="466.40642525574594" y="1675.903814215485" width="54.0" height="86.928" class="none key"/>
</g>
<g transform="rotate(-15.0, 563.0344648531952, 1708.7334291572033)">
<rect rx="4.0" ry="4.0" x="534.3824648531952" y="1681.7334291572033" width="57.303999999999995" height="54.0" class="held key"/>
</g>
<rect rx="4.0" ry="4.0" x="600.5759999999999" y="1674.083814215485" width="57.303999999999995" height="54.0" class="none key"/>
</g>
</svg>
